<?xml version="1.0" encoding="UTF-8"?>
<!DOCTYPE svg PUBLIC "-//W3C//DTD SVG 1.1//EN" "http://www.w3.org/Graphics/SVG/1.1/DTD/svg11.dtd">
<svg xmlns="http://www.w3.org/2000/svg" version="1.1" width="800px" height="450px" style="shape-rendering:geometricPrecision; text-rendering:geometricPrecision; image-rendering:optimizeQuality; fill-rule:evenodd; clip-rule:evenodd" xmlns:xlink="http://www.w3.org/1999/xlink">
<g><path style="opacity:0.039" fill="#fad5d4" d="M 372.5,13.5 C 359.63,13.1966 346.63,13.5299 333.5,14.5C 333.5,14.1667 333.5,13.8333 333.5,13.5C 346.5,12.1667 359.5,12.1667 372.5,13.5 Z"/></g>
<g><path style="opacity:0.69" fill="#f47c7f" d="M 372.5,13.5 C 372.5,14.1667 372.5,14.8333 372.5,15.5C 359.498,14.1921 346.498,14.1921 333.5,15.5C 333.5,15.1667 333.5,14.8333 333.5,14.5C 346.63,13.5299 359.63,13.1966 372.5,13.5 Z"/></g>
<g><path style="opacity:0.439" fill="#fab0b0" d="M 372.5,13.5 C 379.476,14.3216 386.142,15.9883 392.5,18.5C 385.799,17.6857 379.133,16.6857 372.5,15.5C 372.5,14.8333 372.5,14.1667 372.5,13.5 Z"/></g>
<g><path style="opacity:1" fill="#ed1f24" d="M 372.5,15.5 C 379.133,16.6857 385.799,17.6857 392.5,18.5C 392.611,19.1174 392.944,19.6174 393.5,20C 401.023,21.6387 408.356,23.8054 415.5,26.5C 418.805,29.7857 422.805,31.7857 427.5,32.5C 432.296,36.6171 437.63,39.9504 443.5,42.5C 444.167,42.5 444.5,42.8333 444.5,43.5C 447.929,47.2624 451.929,50.2624 456.5,52.5C 457.5,54.1667 458.833,55.5 460.5,56.5C 462.424,59.0913 464.758,61.4246 467.5,63.5C 468.757,66.4274 470.757,68.7607 473.5,70.5C 475.458,73.7915 477.791,76.7915 480.5,79.5C 481.759,83.0246 483.759,86.0246 486.5,88.5C 487.41,91.9922 489.076,94.9922 491.5,97.5C 491.5,98.8333 491.5,100.167 491.5,101.5C 511.027,100.521 530.361,101.855 549.5,105.5C 552.956,108.208 556.956,109.541 561.5,109.5C 572.026,115.775 582.693,122.109 593.5,128.5C 601.833,136.167 609.833,144.167 617.5,152.5C 617.738,154.404 618.738,155.738 620.5,156.5C 620.427,158.027 621.094,159.027 622.5,159.5C 623.11,161.434 624.11,163.101 625.5,164.5C 625.317,166.936 625.984,169.103 627.5,171C 637.838,171.484 648.172,171.984 658.5,172.5C 666.026,173.421 673.359,175.255 680.5,178C 688.631,181.649 696.631,185.483 704.5,189.5C 716.108,198.107 726.441,208.107 735.5,219.5C 735.427,221.027 736.094,222.027 737.5,222.5C 738.351,224.882 739.684,226.882 741.5,228.5C 742.674,229.514 743.34,230.847 743.5,232.5C 744.939,236.842 746.939,240.842 749.5,244.5C 750.065,248.537 751.399,252.203 753.5,255.5C 753.111,258.553 753.777,261.22 755.5,263.5C 757.042,270.418 758.042,277.418 758.5,284.5C 758.5,293.5 758.5,302.5 758.5,311.5C 758.5,313.833 758.5,316.167 758.5,318.5C 757.608,324.852 756.608,331.185 755.5,337.5C 755.675,339.621 755.341,341.621 754.5,343.5C 753.542,343.953 752.708,344.619 752,345.5C 749.955,352.313 747.788,358.98 745.5,365.5C 740.6,372.286 735.933,379.286 731.5,386.5C 726.948,391.77 722.281,396.937 717.5,402C 712.06,405.709 707.06,409.875 702.5,414.5C 696.555,417.116 690.555,419.783 684.5,422.5C 683.702,422.957 683.369,423.624 683.5,424.5C 675.296,426.701 666.963,428.368 658.5,429.5C 655.372,428.382 652.372,428.549 649.5,430C 490.5,430.5 331.5,430.667 172.5,430.5C 170.833,430.5 169.167,430.5 167.5,430.5C 165.052,429.527 162.385,429.194 159.5,429.5C 158.833,429.5 158.167,429.5 157.5,429.5C 146.181,426.339 135.181,422.339 124.5,417.5C 123.508,417.672 122.842,417.338 122.5,416.5C 121.713,414.896 120.38,414.229 118.5,414.5C 116.853,412.674 114.853,411.34 112.5,410.5C 110.882,408.684 108.882,407.351 106.5,406.5C 105.455,405.122 104.122,404.122 102.5,403.5C 101.421,401.457 99.754,400.124 97.5,399.5C 91.8875,393.221 85.8875,387.221 79.5,381.5C 73.4248,372.448 67.4248,363.448 61.5,354.5C 57.2016,344.91 53.2016,335.243 49.5,325.5C 48.2436,320.218 47.2436,314.885 46.5,309.5C 46.13,305.863 45.13,302.53 43.5,299.5C 42.5208,287.247 42.1874,274.913 42.5,262.5C 45.0339,256.197 46.0339,249.53 45.5,242.5C 47.1986,237.366 48.532,232.032 49.5,226.5C 52.0981,221.479 54.0981,216.146 55.5,210.5C 55.5,210.167 55.5,209.833 55.5,209.5C 58.5189,206.129 60.5189,202.129 61.5,197.5C 64.5023,194.839 66.5023,191.505 67.5,187.5C 72.1856,182.142 76.5189,176.475 80.5,170.5C 87.027,164.395 93.3604,158.061 99.5,151.5C 101.754,150.876 103.421,149.543 104.5,147.5C 115.084,141.31 125.75,135.31 136.5,129.5C 143.533,127.992 150.533,126.325 157.5,124.5C 171.118,122.423 184.785,122.09 198.5,123.5C 200.952,123.461 202.952,122.794 204.5,121.5C 207.619,114.316 210.452,106.983 213,99.5C 215.02,97.4494 216.52,95.1161 217.5,92.5C 217.5,91.8333 217.5,91.1667 217.5,90.5C 220.677,88.8128 222.51,86.1461 223,82.5C 227.102,78.239 230.602,73.5724 233.5,68.5C 240.521,62.1457 247.188,55.479 253.5,48.5C 257.363,47.3064 260.363,44.973 262.5,41.5C 264.674,41.2503 266.341,40.2503 267.5,38.5C 267.842,37.6618 268.508,37.3284 269.5,37.5C 271.853,36.6597 273.853,35.3264 275.5,33.5C 277.38,33.7709 278.713,33.1042 279.5,31.5C 279.842,30.6618 280.508,30.3284 281.5,30.5C 286.189,28.8467 290.522,26.8467 294.5,24.5C 307.094,19.7682 320.094,16.7682 333.5,15.5C 346.498,14.1921 359.498,14.1921 372.5,15.5 Z"/></g>
<g><path style="opacity:0.439" fill="#f9adad" d="M 333.5,13.5 C 333.5,13.8333 333.5,14.1667 333.5,14.5C 333.5,14.8333 333.5,15.1667 333.5,15.5C 320.094,16.7682 307.094,19.7682 294.5,24.5C 294.611,23.8826 294.944,23.3826 295.5,23C 307.824,18.2774 320.49,15.1108 333.5,13.5 Z"/></g>
<g><path style="opacity:0.282" fill="#faa9a8" d="M 392.5,18.5 C 400.847,19.6139 408.514,22.2806 415.5,26.5C 408.356,23.8054 401.023,21.6387 393.5,20C 392.944,19.6174 392.611,19.1174 392.5,18.5 Z"/></g>
<g><path style="opacity:0.584" fill="#f9a2a2" d="M 294.5,24.5 C 290.522,26.8467 286.189,28.8467 281.5,30.5C 285.145,27.3784 289.478,25.3784 294.5,24.5 Z"/></g>
<g><path style="opacity:0.439" fill="#f99a9a" d="M 415.5,26.5 C 420.367,26.9333 424.367,28.9333 427.5,32.5C 422.805,31.7857 418.805,29.7857 415.5,26.5 Z"/></g>
<g><path style="opacity:0.439" fill="#f8a4a5" d="M 279.5,31.5 C 278.713,33.1042 277.38,33.7709 275.5,33.5C 276.514,32.3263 277.847,31.6596 279.5,31.5 Z"/></g>
<g><path style="opacity:0.282" fill="#f9a7a7" d="M 275.5,33.5 C 273.853,35.3264 271.853,36.6597 269.5,37.5C 270.802,35.1782 272.802,33.8449 275.5,33.5 Z"/></g>
<g><path style="opacity:0.282" fill="#f9aaa9" d="M 427.5,32.5 C 433.616,34.6226 438.949,37.956 443.5,42.5C 437.63,39.9504 432.296,36.6171 427.5,32.5 Z"/></g>
<g><path style="opacity:0.282" fill="#f9b1b1" d="M 267.5,38.5 C 266.341,40.2503 264.674,41.2503 262.5,41.5C 263.659,39.7497 265.326,38.7497 267.5,38.5 Z"/></g>
<g><path style="opacity:0.439" fill="#f9abac" d="M 262.5,41.5 C 260.363,44.973 257.363,47.3064 253.5,48.5C 256.208,45.7915 259.208,43.4581 262.5,41.5 Z"/></g>
<g><path style="opacity:1" fill="#f05558" d="M 365.5,48.5 C 355.806,48.3068 346.139,48.6401 336.5,49.5C 337.609,48.71 338.942,48.21 340.5,48C 349.01,47.1768 357.344,47.3434 365.5,48.5 Z"/></g>
<g><path style="opacity:1" fill="#fefefd" d="M 368.5,49.5 C 369.5,49.5 370.5,49.5 371.5,49.5C 374.544,51.0114 377.878,51.678 381.5,51.5C 386.002,54.2068 391.002,55.5402 396.5,55.5C 401.509,57.5178 406.509,59.5178 411.5,61.5C 411.973,62.9063 412.973,63.573 414.5,63.5C 427.034,71.039 438.367,80.039 448.5,90.5C 448.427,92.0269 449.094,93.0269 450.5,93.5C 456.068,97.9836 459.568,103.65 461,110.5C 460.617,111.056 460.117,111.389 459.5,111.5C 457.102,111.259 455.102,111.926 453.5,113.5C 449.75,114.411 446.75,116.411 444.5,119.5C 435.442,123.216 427.776,128.883 421.5,136.5C 414.793,139.796 415.127,142.463 422.5,144.5C 423.895,146.379 425.895,147.379 428.5,147.5C 432.887,149.711 437.387,151.711 442,153.5C 445.837,151.333 449.67,149.333 453.5,147.5C 456.1,146.532 458.434,145.199 460.5,143.5C 465.354,140.544 470.688,138.544 476.5,137.5C 478.898,137.741 480.898,137.074 482.5,135.5C 487.414,135.638 492.081,134.972 496.5,133.5C 504.792,132.593 513.125,132.26 521.5,132.5C 533.249,133.982 544.583,136.982 555.5,141.5C 555.973,142.906 556.973,143.573 558.5,143.5C 558.833,143.5 559.167,143.5 559.5,143.5C 559.973,144.906 560.973,145.573 562.5,145.5C 581.289,154.288 595.955,167.622 606.5,185.5C 607.34,187.853 608.674,189.853 610.5,191.5C 611.773,193.713 612.773,196.046 613.5,198.5C 613.5,199.833 613.5,201.167 613.5,202.5C 622.833,202.5 632.167,202.5 641.5,202.5C 646.878,202.845 652.211,203.512 657.5,204.5C 659.599,205.612 661.933,206.279 664.5,206.5C 667.443,207.367 670.443,208.367 673.5,209.5C 673.973,210.906 674.973,211.573 676.5,211.5C 677.609,211.557 678.609,211.89 679.5,212.5C 680.287,214.104 681.62,214.771 683.5,214.5C 700.71,224.377 713.377,238.377 721.5,256.5C 721.427,258.027 722.094,259.027 723.5,259.5C 723.833,260.833 724.167,262.167 724.5,263.5C 724.59,265.696 724.923,267.863 725.5,270C 725.684,271.376 726.351,272.209 727.5,272.5C 728.451,273.919 728.784,275.585 728.5,277.5C 728.294,280.495 728.96,283.162 730.5,285.5C 730.5,286.833 730.5,288.167 730.5,289.5C 730.721,298.866 730.387,308.199 729.5,317.5C 729.599,320.237 729.265,322.904 728.5,325.5C 727.232,327.905 726.565,330.572 726.5,333.5C 724.935,335.509 723.935,337.843 723.5,340.5C 722.079,343.547 720.746,346.547 719.5,349.5C 717.75,350.659 716.75,352.326 716.5,354.5C 715.471,356.517 714.471,358.517 713.5,360.5C 710.529,362.443 708.529,365.109 707.5,368.5C 706.833,368.5 706.5,368.833 706.5,369.5C 704.413,370.585 703.08,372.251 702.5,374.5C 700.736,375.326 699.402,376.659 698.5,378.5C 695.573,379.757 693.239,381.757 691.5,384.5C 686.841,387.168 682.508,390.335 678.5,394C 671.781,396.088 665.447,398.921 659.5,402.5C 655.239,402.898 651.239,403.898 647.5,405.5C 646.833,405.5 646.167,405.5 645.5,405.5C 642.572,405.565 639.905,406.232 637.5,407.5C 636.833,407.5 636.167,407.5 635.5,407.5C 488.833,407.5 342.167,407.5 195.5,407.5C 191.455,405.823 187.122,405.156 182.5,405.5C 178.226,405.13 174.226,404.13 170.5,402.5C 166.699,399.925 162.365,398.592 157.5,398.5C 130.826,387.299 109.826,369.299 94.5,344.5C 94.573,342.973 93.9063,341.973 92.5,341.5C 90.7712,337.042 88.7712,332.709 86.5,328.5C 86.0736,324.098 84.7403,320.098 82.5,316.5C 81.1216,309.653 79.4549,302.986 77.5,296.5C 76.612,293.946 76.2786,291.279 76.5,288.5C 76.201,280.747 76.5343,273.08 77.5,265.5C 79.9536,261.327 80.9536,256.661 80.5,251.5C 80.8333,248.833 81.1667,246.167 81.5,243.5C 82.1302,241.25 83.1302,239.25 84.5,237.5C 86.6418,234.2 87.9751,230.533 88.5,226.5C 88.5,226.167 88.5,225.833 88.5,225.5C 89.9063,225.027 90.573,224.027 90.5,222.5C 91.9757,217.055 94.6423,212.388 98.5,208.5C 99.9063,208.027 100.573,207.027 100.5,205.5C 111.304,190.031 124.971,177.697 141.5,168.5C 143.967,168.245 145.967,167.245 147.5,165.5C 148.873,165.657 150.207,165.49 151.5,165C 153.431,164.098 155.097,162.931 156.5,161.5C 159.514,159.57 162.848,158.236 166.5,157.5C 170.286,157.68 173.619,156.68 176.5,154.5C 179.187,154.664 181.854,154.497 184.5,154C 185.056,153.617 185.389,153.117 185.5,152.5C 187.833,152.5 190.167,152.5 192.5,152.5C 193.833,152.5 195.167,152.5 196.5,152.5C 196.5,155.5 196.5,158.5 196.5,161.5C 195.242,171.029 195.409,180.696 197,190.5C 198.011,191.337 199.178,191.67 200.5,191.5C 210.652,195.106 220.985,198.106 231.5,200.5C 232.209,201.404 233.209,201.737 234.5,201.5C 233.664,197.677 232.664,194.011 231.5,190.5C 230.24,178.486 230.24,166.486 231.5,154.5C 232.924,152.485 233.59,150.152 233.5,147.5C 233.755,143.2 234.755,139.2 236.5,135.5C 238.38,133.245 239.38,130.578 239.5,127.5C 239.833,126.167 240.167,124.833 240.5,123.5C 241.906,123.027 242.573,122.027 242.5,120.5C 242.328,119.508 242.662,118.842 243.5,118.5C 245.199,116.434 246.532,114.1 247.5,111.5C 247.5,110.833 247.5,110.167 247.5,109.5C 249.262,108.738 250.262,107.404 250.5,105.5C 251.906,105.027 252.573,104.027 252.5,102.5C 252.328,101.508 252.662,100.842 253.5,100.5C 255.264,99.674 256.598,98.3407 257.5,96.5C 258.754,93.9066 260.42,91.5732 262.5,89.5C 266.395,87.2799 269.728,84.2799 272.5,80.5C 273.167,79.1667 274.167,78.1667 275.5,77.5C 277.828,75.6996 280.495,74.533 283.5,74C 284.337,72.9887 284.67,71.8221 284.5,70.5C 284.5,69.8333 284.833,69.5 285.5,69.5C 287.674,69.2503 289.341,68.2503 290.5,66.5C 294.538,63.1476 299.205,60.8143 304.5,59.5C 306.153,59.3404 307.486,58.6737 308.5,57.5C 310.028,56.6908 311.694,56.0241 313.5,55.5C 315.786,55.405 317.786,54.7384 319.5,53.5C 319.833,53.5 320.167,53.5 320.5,53.5C 322.898,53.7406 324.898,53.0739 326.5,51.5C 327.5,51.5 328.5,51.5 329.5,51.5C 342.437,49.8356 355.437,49.1689 368.5,49.5 Z"/></g>
<g><path style="opacity:0.439" fill="#f9aeae" d="M 444.5,43.5 C 449.224,45.5293 453.224,48.5293 456.5,52.5C 451.929,50.2624 447.929,47.2624 444.5,43.5 Z"/></g>
<g><path style="opacity:1" fill="#f9b5b1" d="M 365.5,48.5 C 366.791,48.2627 367.791,48.596 368.5,49.5C 355.437,49.1689 342.437,49.8356 329.5,51.5C 331.515,50.0762 333.848,49.4095 336.5,49.5C 346.139,48.6401 355.806,48.3068 365.5,48.5 Z"/></g>
<g><path style="opacity:1" fill="#f7a3a0" d="M 371.5,49.5 C 375.078,49.5488 378.411,50.2154 381.5,51.5C 377.878,51.678 374.544,51.0114 371.5,49.5 Z"/></g>
<g><path style="opacity:0.996" fill="#f15f5e" d="M 384.5,51.5 C 387.228,51.1706 389.562,51.8372 391.5,53.5C 388.848,53.5905 386.515,52.9238 384.5,51.5 Z"/></g>
<g><path style="opacity:1" fill="#f8a6a2" d="M 326.5,51.5 C 324.898,53.0739 322.898,53.7406 320.5,53.5C 322.102,51.9261 324.102,51.2594 326.5,51.5 Z"/></g>
<g><path style="opacity:0.039" fill="#fbcac9" d="M 456.5,52.5 C 458.833,52.8333 460.167,54.1667 460.5,56.5C 458.833,55.5 457.5,54.1667 456.5,52.5 Z"/></g>
<g><path style="opacity:1" fill="#fcd4ce" d="M 381.5,51.5 C 382.5,51.5 383.5,51.5 384.5,51.5C 386.515,52.9238 388.848,53.5905 391.5,53.5C 393.306,54.0241 394.972,54.6908 396.5,55.5C 391.002,55.5402 386.002,54.2068 381.5,51.5 Z"/></g>
<g><path style="opacity:1" fill="#f68b89" d="M 319.5,53.5 C 317.786,54.7384 315.786,55.405 313.5,55.5C 315.102,53.9261 317.102,53.2594 319.5,53.5 Z"/></g>
<g><path style="opacity:1" fill="#f8a09d" d="M 308.5,57.5 C 307.486,58.6737 306.153,59.3404 304.5,59.5C 305.287,57.8958 306.62,57.2291 308.5,57.5 Z"/></g>
<g><path style="opacity:0.439" fill="#faafae" d="M 460.5,56.5 C 463.855,57.8552 466.189,60.1886 467.5,63.5C 464.758,61.4246 462.424,59.0913 460.5,56.5 Z"/></g>
<g><path style="opacity:1" fill="#f47776" d="M 411.5,61.5 C 413.027,61.427 414.027,62.0937 414.5,63.5C 412.973,63.573 411.973,62.9063 411.5,61.5 Z"/></g>
<g><path style="opacity:0.69" fill="#faabab" d="M 467.5,63.5 C 470.243,65.2393 472.243,67.5726 473.5,70.5C 470.757,68.7607 468.757,66.4274 467.5,63.5 Z"/></g>
<g><path style="opacity:0.584" fill="#f8a0a0" d="M 253.5,48.5 C 247.188,55.479 240.521,62.1457 233.5,68.5C 238.8,60.5068 245.467,53.8402 253.5,48.5 Z"/></g>
<g><path style="opacity:1" fill="#f58a87" d="M 290.5,66.5 C 289.341,68.2503 287.674,69.2503 285.5,69.5C 286.659,67.7497 288.326,66.7497 290.5,66.5 Z"/></g>
<g><path style="opacity:0.282" fill="#fab1b1" d="M 473.5,70.5 C 476.973,72.6367 479.306,75.6367 480.5,79.5C 477.791,76.7915 475.458,73.7915 473.5,70.5 Z"/></g>
<g><path style="opacity:0.584" fill="#f99f9f" d="M 233.5,68.5 C 230.602,73.5724 227.102,78.239 223,82.5C 222.51,86.1461 220.677,88.8128 217.5,90.5C 220.964,81.7183 226.297,74.385 233.5,68.5 Z"/></g>
<g><path style="opacity:1" fill="#fccbc6" d="M 284.5,70.5 C 284.67,71.8221 284.337,72.9887 283.5,74C 280.495,74.533 277.828,75.6996 275.5,77.5C 277.949,74.4442 280.949,72.1108 284.5,70.5 Z"/></g>
<g><path style="opacity:0.439" fill="#f9b3b3" d="M 480.5,79.5 C 483.277,81.9505 485.277,84.9505 486.5,88.5C 483.759,86.0246 481.759,83.0246 480.5,79.5 Z"/></g>
<g><path style="opacity:1" fill="#fbc9c3" d="M 272.5,80.5 C 269.728,84.2799 266.395,87.2799 262.5,89.5C 265.231,85.7657 268.564,82.7657 272.5,80.5 Z"/></g>
<g><path style="opacity:0.141" fill="#fabebd" d="M 486.5,88.5 C 488.943,91.0516 490.61,94.0516 491.5,97.5C 489.076,94.9922 487.41,91.9922 486.5,88.5 Z"/></g>
<g><path style="opacity:1" fill="#f8a4a0" d="M 448.5,90.5 C 449.906,90.9731 450.573,91.9731 450.5,93.5C 449.094,93.0269 448.427,92.0269 448.5,90.5 Z"/></g>
<g><path style="opacity:0.141" fill="#fbc5c5" d="M 217.5,90.5 C 217.5,91.1667 217.5,91.8333 217.5,92.5C 216.833,92.8333 216.167,93.1667 215.5,93.5C 215.427,91.9731 216.094,90.9731 217.5,90.5 Z"/></g>
<g><path style="opacity:1" fill="#f79794" d="M 257.5,96.5 C 256.598,98.3407 255.264,99.674 253.5,100.5C 253.957,98.2273 255.29,96.894 257.5,96.5 Z"/></g>
<g><path style="opacity:0.282" fill="#f9a8a8" d="M 491.5,97.5 C 492.365,99.6773 494.032,100.677 496.5,100.5C 510.568,99.0028 524.568,99.5028 538.5,102C 542.427,102.724 546.094,103.891 549.5,105.5C 530.361,101.855 511.027,100.521 491.5,101.5C 491.5,100.167 491.5,98.8333 491.5,97.5 Z"/></g>
<g><path style="opacity:0.439" fill="#f9a1a0" d="M 217.5,92.5 C 216.52,95.1161 215.02,97.4494 213,99.5C 210.452,106.983 207.619,114.316 204.5,121.5C 204.167,121.5 203.833,121.5 203.5,121.5C 203.966,119.799 203.966,118.299 203.5,117C 207.414,109.071 211.414,101.238 215.5,93.5C 216.167,93.1667 216.833,92.8333 217.5,92.5 Z"/></g>
<g><path style="opacity:1" fill="#f79d9a" d="M 252.5,102.5 C 252.573,104.027 251.906,105.027 250.5,105.5C 250.427,103.973 251.094,102.973 252.5,102.5 Z"/></g>
<g><path style="opacity:1" fill="#f7918e" d="M 250.5,105.5 C 250.262,107.404 249.262,108.738 247.5,109.5C 247.738,107.596 248.738,106.262 250.5,105.5 Z"/></g>
<g><path style="opacity:0.584" fill="#f9a8a8" d="M 549.5,105.5 C 553.915,105.861 557.915,107.194 561.5,109.5C 556.956,109.541 552.956,108.208 549.5,105.5 Z"/></g>
<g><path style="opacity:1" fill="#f7928f" d="M 459.5,111.5 C 457.786,112.738 455.786,113.405 453.5,113.5C 455.102,111.926 457.102,111.259 459.5,111.5 Z"/></g>
<g><path style="opacity:0.141" fill="#f9a9a9" d="M 561.5,109.5 C 572.382,113.942 582.716,119.442 592.5,126C 593.252,126.671 593.586,127.504 593.5,128.5C 582.693,122.109 572.026,115.775 561.5,109.5 Z"/></g>
<g><path style="opacity:1" fill="#f3615d" d="M 453.5,113.5 C 451.25,116.589 448.25,118.589 444.5,119.5C 446.75,116.411 449.75,114.411 453.5,113.5 Z"/></g>
<g><path style="opacity:1" fill="#fabeb9" d="M 247.5,111.5 C 246.532,114.1 245.199,116.434 243.5,118.5C 243.725,115.454 245.058,113.121 247.5,111.5 Z"/></g>
<g><path style="opacity:0.933" fill="#f05056" d="M 203.5,121.5 C 203.833,121.5 204.167,121.5 204.5,121.5C 202.952,122.794 200.952,123.461 198.5,123.5C 184.785,122.09 171.118,122.423 157.5,124.5C 158.5,123.833 159.5,123.167 160.5,122.5C 175.006,121.543 189.339,121.21 203.5,121.5 Z"/></g>
<g><path style="opacity:0.282" fill="#fab6b6" d="M 203.5,121.5 C 189.339,121.21 175.006,121.543 160.5,122.5C 174.619,118.887 188.953,118.553 203.5,121.5 Z"/></g>
<g><path style="opacity:1" fill="#f58a88" d="M 242.5,120.5 C 242.573,122.027 241.906,123.027 240.5,123.5C 240.427,121.973 241.094,120.973 242.5,120.5 Z"/></g>
<g><path style="opacity:0.584" fill="#faadad" d="M 160.5,122.5 C 159.5,123.167 158.5,123.833 157.5,124.5C 150.533,126.325 143.533,127.992 136.5,129.5C 143.948,125.634 151.948,123.301 160.5,122.5 Z"/></g>
<g><path style="opacity:1" fill="#f36f6f" d="M 521.5,132.5 C 513.125,132.26 504.792,132.593 496.5,133.5C 495.5,133.5 494.5,133.5 493.5,133.5C 498.748,131.978 504.248,131.311 510,131.5C 514.015,131.501 517.849,131.835 521.5,132.5 Z"/></g>
<g><path style="opacity:0.439" fill="#fab0b0" d="M 593.5,128.5 C 603.167,134.833 611.167,142.833 617.5,152.5C 609.833,144.167 601.833,136.167 593.5,128.5 Z"/></g>
<g><path style="opacity:1" fill="#fbbab5" d="M 239.5,127.5 C 239.38,130.578 238.38,133.245 236.5,135.5C 236.62,132.422 237.62,129.755 239.5,127.5 Z"/></g>
<g><path style="opacity:1" fill="#fcc8c3" d="M 493.5,133.5 C 494.5,133.5 495.5,133.5 496.5,133.5C 492.081,134.972 487.414,135.638 482.5,135.5C 485.909,134.097 489.575,133.43 493.5,133.5 Z"/></g>
<g><path style="opacity:1" fill="#fabbb6" d="M 482.5,135.5 C 480.898,137.074 478.898,137.741 476.5,137.5C 478.102,135.926 480.102,135.259 482.5,135.5 Z"/></g>
<g><path style="opacity:1" fill="#f26c68" d="M 421.5,136.5 C 420.524,137.815 419.524,139.148 418.5,140.5C 419.549,142.216 420.882,143.549 422.5,144.5C 415.127,142.463 414.793,139.796 421.5,136.5 Z"/></g>
<g><path style="opacity:0.439" fill="#f9a6a7" d="M 136.5,129.5 C 125.75,135.31 115.084,141.31 104.5,147.5C 113.927,139.449 124.594,133.449 136.5,129.5 Z"/></g>
<g><path style="opacity:1" fill="#f8a09c" d="M 555.5,141.5 C 557.027,141.427 558.027,142.094 558.5,143.5C 556.973,143.573 555.973,142.906 555.5,141.5 Z"/></g>
<g><path style="opacity:1" fill="#fbb8b3" d="M 460.5,143.5 C 458.434,145.199 456.1,146.532 453.5,147.5C 454.855,144.482 457.188,143.149 460.5,143.5 Z"/></g>
<g><path style="opacity:1" fill="#f8a8a4" d="M 559.5,143.5 C 561.027,143.427 562.027,144.094 562.5,145.5C 560.973,145.573 559.973,144.906 559.5,143.5 Z"/></g>
<g><path style="opacity:1" fill="#f9a6a3" d="M 422.5,144.5 C 424.967,144.755 426.967,145.755 428.5,147.5C 425.895,147.379 423.895,146.379 422.5,144.5 Z"/></g>
<g><path style="opacity:0.439" fill="#f9b5b5" d="M 104.5,147.5 C 103.421,149.543 101.754,150.876 99.5,151.5C 100.539,149.469 102.205,148.136 104.5,147.5 Z"/></g>
<g><path style="opacity:1" fill="#f9a6a2" d="M 185.5,152.5 C 185.389,153.117 185.056,153.617 184.5,154C 181.854,154.497 179.187,154.664 176.5,154.5C 179.273,153.343 182.273,152.676 185.5,152.5 Z"/></g>
<g><path style="opacity:1" fill="#f58482" d="M 233.5,147.5 C 233.59,150.152 232.924,152.485 231.5,154.5C 231.41,151.848 232.076,149.515 233.5,147.5 Z"/></g>
<g><path style="opacity:0.584" fill="#f9aeae" d="M 617.5,152.5 C 619.262,153.262 620.262,154.596 620.5,156.5C 618.738,155.738 617.738,154.404 617.5,152.5 Z"/></g>
<g><path style="opacity:1" fill="#f9ada8" d="M 176.5,154.5 C 173.619,156.68 170.286,157.68 166.5,157.5C 169.505,155.723 172.838,154.723 176.5,154.5 Z"/></g>
<g><path style="opacity:0.282" fill="#f9b2b2" d="M 620.5,156.5 C 621.906,156.973 622.573,157.973 622.5,159.5C 621.094,159.027 620.427,158.027 620.5,156.5 Z"/></g>
<g><path style="opacity:0.282" fill="#f9abab" d="M 99.5,151.5 C 93.3604,158.061 87.027,164.395 80.5,170.5C 81.412,168.405 82.5787,166.405 84,164.5C 88.7596,159.603 93.9263,155.269 99.5,151.5 Z"/></g>
<g><path style="opacity:1" fill="#fcddd8" d="M 196.5,161.5 C 196.158,171.055 196.825,180.389 198.5,189.5C 199.167,190.167 199.833,190.833 200.5,191.5C 199.178,191.67 198.011,191.337 197,190.5C 195.409,180.696 195.242,171.029 196.5,161.5 Z"/></g>
<g><path style="opacity:0.282" fill="#fab9b9" d="M 622.5,159.5 C 624.727,160.401 625.727,162.067 625.5,164.5C 624.11,163.101 623.11,161.434 622.5,159.5 Z"/></g>
<g><path style="opacity:1" fill="#fccbc6" d="M 156.5,161.5 C 155.097,162.931 153.431,164.098 151.5,165C 150.207,165.49 148.873,165.657 147.5,165.5C 148.903,164.069 150.569,162.902 152.5,162C 153.793,161.51 155.127,161.343 156.5,161.5 Z"/></g>
<g><path style="opacity:1" fill="#f48180" d="M 192.5,152.5 C 193.919,151.549 195.585,151.216 197.5,151.5C 197.405,164.181 197.739,176.848 198.5,189.5C 196.825,180.389 196.158,171.055 196.5,161.5C 196.5,158.5 196.5,155.5 196.5,152.5C 195.167,152.5 193.833,152.5 192.5,152.5 Z"/></g>
<g><path style="opacity:1" fill="#f9ada8" d="M 147.5,165.5 C 145.967,167.245 143.967,168.245 141.5,168.5C 143.033,166.755 145.033,165.755 147.5,165.5 Z"/></g>
<g><path style="opacity:0.933" fill="#f15056" d="M 625.5,164.5 C 626.401,165.29 627.068,166.29 627.5,167.5C 627.414,168.496 627.748,169.329 628.5,170C 638.728,170.003 648.728,170.836 658.5,172.5C 648.172,171.984 637.838,171.484 627.5,171C 625.984,169.103 625.317,166.936 625.5,164.5 Z"/></g>
<g><path style="opacity:0.282" fill="#f9adad" d="M 627.5,167.5 C 628.531,168.355 629.697,169.022 631,169.5C 656.672,167.702 680.505,173.536 702.5,187C 703.381,187.708 704.047,188.542 704.5,189.5C 696.631,185.483 688.631,181.649 680.5,178C 673.359,175.255 666.026,173.421 658.5,172.5C 648.728,170.836 638.728,170.003 628.5,170C 627.748,169.329 627.414,168.496 627.5,167.5 Z"/></g>
<g><path style="opacity:0.439" fill="#f9abab" d="M 80.5,170.5 C 76.5189,176.475 72.1856,182.142 67.5,187.5C 70.021,182.134 73.1877,177.134 77,172.5C 77.8159,171.177 78.9826,170.511 80.5,170.5 Z"/></g>
<g><path style="opacity:1" fill="#f68b88" d="M 606.5,185.5 C 608.822,186.802 610.155,188.802 610.5,191.5C 608.674,189.853 607.34,187.853 606.5,185.5 Z"/></g>
<g><path style="opacity:0.992" fill="#f25755" d="M 231.5,190.5 C 232.664,194.011 233.664,197.677 234.5,201.5C 233.209,201.737 232.209,201.404 231.5,200.5C 232.239,200.631 232.906,200.464 233.5,200C 231.924,197.049 231.257,193.883 231.5,190.5 Z"/></g>
<g><path style="opacity:0.282" fill="#fab3b3" d="M 67.5,187.5 C 66.5023,191.505 64.5023,194.839 61.5,197.5C 62.4977,193.495 64.4977,190.161 67.5,187.5 Z"/></g>
<g><path style="opacity:0.282" fill="#f9adac" d="M 704.5,189.5 C 709.46,191.317 713.793,194.15 717.5,198C 724.864,204.182 730.864,211.349 735.5,219.5C 726.441,208.107 716.108,198.107 704.5,189.5 Z"/></g>
<g><path style="opacity:1" fill="#f27575" d="M 614.5,198.5 C 623.083,200.107 631.75,201.107 640.5,201.5C 631.833,201.5 623.167,201.5 614.5,201.5C 614.5,200.5 614.5,199.5 614.5,198.5 Z"/></g>
<g><path style="opacity:0.69" fill="#faa6a6" d="M 61.5,197.5 C 60.5189,202.129 58.5189,206.129 55.5,209.5C 56.9392,205.158 58.9392,201.158 61.5,197.5 Z"/></g>
<g><path style="opacity:1" fill="#fcddd7" d="M 613.5,198.5 C 613.833,198.5 614.167,198.5 614.5,198.5C 614.5,199.5 614.5,200.5 614.5,201.5C 623.167,201.5 631.833,201.5 640.5,201.5C 640.833,201.5 641.167,201.5 641.5,201.5C 641.5,201.833 641.5,202.167 641.5,202.5C 632.167,202.5 622.833,202.5 613.5,202.5C 613.5,201.167 613.5,199.833 613.5,198.5 Z"/></g>
<g><path style="opacity:1" fill="#f68784" d="M 641.5,202.5 C 641.5,202.167 641.5,201.833 641.5,201.5C 647.184,201.261 652.518,202.261 657.5,204.5C 652.211,203.512 646.878,202.845 641.5,202.5 Z"/></g>
<g><path style="opacity:1" fill="#f58482" d="M 657.5,204.5 C 660.228,204.171 662.562,204.837 664.5,206.5C 661.933,206.279 659.599,205.612 657.5,204.5 Z"/></g>
<g><path style="opacity:1" fill="#f8a09c" d="M 100.5,205.5 C 100.573,207.027 99.9063,208.027 98.5,208.5C 98.427,206.973 99.0937,205.973 100.5,205.5 Z"/></g>
<g><path style="opacity:1" fill="#f79694" d="M 673.5,209.5 C 675.027,209.427 676.027,210.094 676.5,211.5C 674.973,211.573 673.973,210.906 673.5,209.5 Z"/></g>
<g><path style="opacity:1" fill="#f6918f" d="M 679.5,212.5 C 681.153,212.66 682.486,213.326 683.5,214.5C 681.62,214.771 680.287,214.104 679.5,212.5 Z"/></g>
<g><path style="opacity:0.584" fill="#faaeae" d="M 55.5,210.5 C 54.0981,216.146 52.0981,221.479 49.5,226.5C 50.5916,221.637 51.9249,216.804 53.5,212C 53.8361,210.97 54.5028,210.47 55.5,210.5 Z"/></g>
<g><path style="opacity:0.584" fill="#f89a9c" d="M 735.5,219.5 C 736.906,219.973 737.573,220.973 737.5,222.5C 736.094,222.027 735.427,221.027 735.5,219.5 Z"/></g>
<g><path style="opacity:0.039" fill="#fab9b8" d="M 737.5,222.5 C 739.796,223.733 741.13,225.733 741.5,228.5C 739.684,226.882 738.351,224.882 737.5,222.5 Z"/></g>
<g><path style="opacity:1" fill="#f79b97" d="M 90.5,222.5 C 90.573,224.027 89.9063,225.027 88.5,225.5C 88.427,223.973 89.0937,222.973 90.5,222.5 Z"/></g>
<g><path style="opacity:1" fill="#fabeba" d="M 287.5,232.5 C 285.833,232.5 284.167,232.5 282.5,232.5C 270.961,231.199 259.295,231.199 247.5,232.5C 247.611,231.883 247.944,231.383 248.5,231C 260.167,230.333 271.833,230.333 283.5,231C 285.058,231.21 286.391,231.71 287.5,232.5 Z"/></g>
<g><path style="opacity:1" fill="#f9b8b5" d="M 459.5,234.5 C 459.5,233.5 459.5,232.5 459.5,231.5C 448.129,231.232 436.795,231.566 425.5,232.5C 425.918,231.778 426.584,231.278 427.5,231C 438.495,230.5 449.495,230.333 460.5,230.5C 460.768,232.099 460.434,233.432 459.5,234.5 Z"/></g>
<g><path style="opacity:1" fill="#fac0bc" d="M 557.5,233.5 C 552.208,232.171 546.542,231.504 540.5,231.5C 534.657,231.501 528.99,231.834 523.5,232.5C 522.833,232.5 522.167,232.5 521.5,232.5C 521.611,231.883 521.944,231.383 522.5,231C 534.495,230.5 546.495,230.333 558.5,230.5C 558.737,231.791 558.404,232.791 557.5,233.5 Z"/></g>
<g><path style="opacity:1" fill="#ef5053" d="M 282.5,232.5 C 272.161,232.334 261.828,232.5 251.5,233C 249.846,233.608 248.179,234.108 246.5,234.5C 246.833,233.833 247.167,233.167 247.5,232.5C 259.295,231.199 270.961,231.199 282.5,232.5 Z"/></g>
<g><path style="opacity:1" fill="#f4716f" d="M 388.5,232.5 C 386.167,232.5 383.833,232.5 381.5,232.5C 383.656,230.04 385.989,230.04 388.5,232.5 Z"/></g>
<g><path style="opacity:1" fill="#f05658" d="M 523.5,232.5 C 528.99,231.834 534.657,231.501 540.5,231.5C 546.542,231.504 552.208,232.171 557.5,233.5C 557.5,234.167 557.167,234.5 556.5,234.5C 545.884,232.523 534.884,231.856 523.5,232.5 Z"/></g>
<g><path style="opacity:1" fill="#f7a6a2" d="M 424.5,232.5 C 423.71,233.401 422.71,234.068 421.5,234.5C 421.821,232.952 422.821,232.285 424.5,232.5 Z"/></g>
<g><path style="opacity:1" fill="#f47979" d="M 473.5,232.5 C 473.5,243.5 473.5,254.5 473.5,265.5C 472.505,254.679 472.172,243.679 472.5,232.5C 470.167,232.5 467.833,232.5 465.5,232.5C 465.5,245.5 465.5,258.5 465.5,271.5C 464.504,258.344 464.171,245.01 464.5,231.5C 467.713,231.19 470.713,231.523 473.5,232.5 Z"/></g>
<g><path style="opacity:1" fill="#fbc7c2" d="M 88.5,226.5 C 87.9751,230.533 86.6418,234.2 84.5,237.5C 84.4571,233.267 85.7905,229.6 88.5,226.5 Z"/></g>
<g><path style="opacity:1" fill="#f7a39f" d="M 305.5,231.5 C 305.5,245.167 305.5,258.833 305.5,272.5C 307.833,272.5 310.167,272.5 312.5,272.5C 310.393,273.468 308.059,273.802 305.5,273.5C 304.167,259.5 304.167,245.5 305.5,231.5 Z"/></g>
<g><path style="opacity:1" fill="#f26e69" d="M 521.5,232.5 C 522.167,232.5 522.833,232.5 523.5,232.5C 521.394,234.122 519.061,235.455 516.5,236.5C 517.656,234.613 519.323,233.279 521.5,232.5 Z"/></g>
<g><path style="opacity:0.282" fill="#f9a9a9" d="M 743.5,232.5 C 744.458,232.953 745.292,233.619 746,234.5C 747.467,237.758 748.633,241.092 749.5,244.5C 746.939,240.842 744.939,236.842 743.5,232.5 Z"/></g>
<g><path style="opacity:1" fill="#f37b7b" d="M 556.5,234.5 C 556.573,236.027 555.906,237.027 554.5,237.5C 554.427,235.973 555.094,234.973 556.5,234.5 Z"/></g>
<g><path style="opacity:1" fill="#f48786" d="M 563.5,231.5 C 571.143,230.646 573.143,233.479 569.5,240C 564.594,241.756 561.927,240.089 561.5,235C 561.862,233.566 562.528,232.399 563.5,231.5 Z"/></g>
<g><path style="opacity:0.141" fill="#fababa" d="M 49.5,226.5 C 48.532,232.032 47.1986,237.366 45.5,242.5C 44.9152,236.877 46.2486,231.544 49.5,226.5 Z"/></g>
<g><path style="opacity:1" fill="#f37271" d="M 294.5,237.5 C 296.587,238.585 297.92,240.251 298.5,242.5C 296.413,241.415 295.08,239.749 294.5,237.5 Z"/></g>
<g><path style="opacity:1" fill="#ed2a2b" d="M 459.5,234.5 C 458.5,235.833 457.5,237.167 456.5,238.5C 447.161,238.334 437.827,238.5 428.5,239C 426.881,239.236 425.881,240.069 425.5,241.5C 423.983,241.511 422.816,242.177 422,243.5C 419.446,248.043 418.946,252.709 420.5,257.5C 420.772,260.732 422.438,262.732 425.5,263.5C 427.019,264.41 428.685,265.243 430.5,266C 440.5,266.333 450.5,266.667 460.5,267C 459.748,267.671 459.414,268.504 459.5,269.5C 458.373,270.122 457.373,270.955 456.5,272C 445.478,272.713 434.478,272.547 423.5,271.5C 420.497,270.334 417.83,268.667 415.5,266.5C 413.631,263.422 412.298,260.089 411.5,256.5C 410.856,250.235 412.189,244.568 415.5,239.5C 416.712,236.893 418.712,235.226 421.5,234.5C 422.71,234.068 423.71,233.401 424.5,232.5C 424.833,232.5 425.167,232.5 425.5,232.5C 436.795,231.566 448.129,231.232 459.5,231.5C 459.5,232.5 459.5,233.5 459.5,234.5 Z"/></g>
<g><path style="opacity:1" fill="#f38988" d="M 456.5,238.5 C 447.676,239.33 438.676,239.83 429.5,240C 428.255,240.791 426.922,241.291 425.5,241.5C 425.881,240.069 426.881,239.236 428.5,239C 437.827,238.5 447.161,238.334 456.5,238.5 Z"/></g>
<g><path style="opacity:1" fill="#fbbdb8" d="M 554.5,238.5 C 554.389,239.117 554.056,239.617 553.5,240C 543.833,240.333 534.167,240.667 524.5,241C 523.756,242.039 522.756,242.539 521.5,242.5C 522.343,240.827 523.676,239.66 525.5,239C 535.161,238.5 544.828,238.334 554.5,238.5 Z"/></g>
<g><path style="opacity:1" fill="#fbd5cf" d="M 341.5,239.5 C 342.167,239.5 342.5,239.833 342.5,240.5C 333.167,240.5 323.833,240.5 314.5,240.5C 314.667,251.505 314.5,262.505 314,273.5C 311.063,274.817 308.23,274.817 305.5,273.5C 308.059,273.802 310.393,273.468 312.5,272.5C 313.495,261.679 313.828,250.679 313.5,239.5C 322.833,239.5 332.167,239.5 341.5,239.5 Z"/></g>
<g><path style="opacity:1" fill="#f46f6d" d="M 516.5,236.5 C 515.219,239.447 513.219,241.781 510.5,243.5C 511.81,240.527 513.81,238.193 516.5,236.5 Z"/></g>
<g><path style="opacity:1" fill="#f57f7e" d="M 353.5,242.5 C 354.634,244.966 354.801,247.633 354,250.5C 353.8,252.32 352.966,253.653 351.5,254.5C 353.002,250.658 353.668,246.658 353.5,242.5 Z"/></g>
<g><path style="opacity:1" fill="#ee433f" d="M 388.5,232.5 C 392.303,237.396 396.136,242.396 400,247.5C 400.608,249.154 401.108,250.821 401.5,252.5C 398.276,248.578 395.943,249.245 394.5,254.5C 393.833,254.167 393.167,253.833 392.5,253.5C 391.5,251.5 390.5,249.5 389.5,247.5C 391.024,248.174 392.358,249.174 393.5,250.5C 393.833,250.167 394.167,249.833 394.5,249.5C 393.617,248.452 392.95,247.285 392.5,246C 393.409,244.211 393.576,242.377 393,240.5C 391.677,237.691 390.177,235.025 388.5,232.5 Z"/></g>
<g><path style="opacity:1" fill="#f5827f" d="M 81.5,243.5 C 81.1667,246.167 80.8333,248.833 80.5,251.5C 79.8333,252.5 79.1667,253.5 78.5,254.5C 78.7424,250.521 79.7424,246.854 81.5,243.5 Z"/></g>
<g><path style="opacity:1" fill="#fbdcd7" d="M 519.5,245.5 C 531.789,247.48 544.456,248.147 557.5,247.5C 557.741,250.034 556.741,251.7 554.5,252.5C 554.5,252.167 554.5,251.833 554.5,251.5C 555.404,250.791 555.737,249.791 555.5,248.5C 542.788,249.146 530.455,248.48 518.5,246.5C 518.5,245.833 518.833,245.5 519.5,245.5 Z"/></g>
<g><path style="opacity:0.141" fill="#fab9b9" d="M 749.5,244.5 C 752,247.66 753.333,251.327 753.5,255.5C 751.399,252.203 750.065,248.537 749.5,244.5 Z"/></g>
<g><path style="opacity:1" fill="#fcf4f2" d="M 389.5,247.5 C 390.5,249.5 391.5,251.5 392.5,253.5C 392.511,255.017 393.177,256.184 394.5,257C 388.141,257.831 381.807,257.664 375.5,256.5C 376.63,255.378 377.297,254.044 377.5,252.5C 379.54,248.809 381.54,245.143 383.5,241.5C 386.363,242.492 388.363,244.492 389.5,247.5 Z"/></g>
<g><path style="opacity:1" fill="#f37172" d="M 518.5,246.5 C 530.455,248.48 542.788,249.146 555.5,248.5C 555.737,249.791 555.404,250.791 554.5,251.5C 542.545,249.52 530.212,248.854 517.5,249.5C 517.263,248.209 517.596,247.209 518.5,246.5 Z"/></g>
<g><path style="opacity:1" fill="#f79996" d="M 415.5,239.5 C 412.189,244.568 410.856,250.235 411.5,256.5C 411.167,256.5 410.833,256.5 410.5,256.5C 410.087,250.963 410.92,245.63 413,240.5C 413.671,239.748 414.504,239.414 415.5,239.5 Z"/></g>
<g><path style="opacity:1" fill="#f69a98" d="M 510.5,243.5 C 509.686,248.119 509.353,252.786 509.5,257.5C 508.838,255.696 508.505,253.696 508.5,251.5C 508.287,248.473 508.953,245.807 510.5,243.5 Z"/></g>
<g><path style="opacity:1" fill="#ec2126" d="M 523.5,232.5 C 534.884,231.856 545.884,232.523 556.5,234.5C 555.094,234.973 554.427,235.973 554.5,237.5C 554.5,237.833 554.5,238.167 554.5,238.5C 544.828,238.334 535.161,238.5 525.5,239C 523.676,239.66 522.343,240.827 521.5,242.5C 520.094,242.973 519.427,243.973 519.5,245.5C 518.833,245.5 518.5,245.833 518.5,246.5C 517.596,247.209 517.263,248.209 517.5,249.5C 530.212,248.854 542.545,249.52 554.5,251.5C 554.5,251.833 554.5,252.167 554.5,252.5C 552.952,252.821 552.285,253.821 552.5,255.5C 540.833,255.5 529.167,255.5 517.5,255.5C 517.232,257.099 517.566,258.432 518.5,259.5C 518.833,259.5 519.167,259.5 519.5,259.5C 519.932,260.71 520.599,261.71 521.5,262.5C 522.453,264.61 524.119,265.777 526.5,266C 537.167,266.333 547.833,266.667 558.5,267C 557.748,267.671 557.414,268.504 557.5,269.5C 556.373,270.122 555.373,270.955 554.5,272C 543.466,272.765 532.466,272.599 521.5,271.5C 519.589,270.925 517.922,269.925 516.5,268.5C 513.325,265.675 510.992,262.341 509.5,258.5C 509.5,258.167 509.5,257.833 509.5,257.5C 509.353,252.786 509.686,248.119 510.5,243.5C 513.219,241.781 515.219,239.447 516.5,236.5C 519.061,235.455 521.394,234.122 523.5,232.5 Z"/></g>
<g><path style="opacity:0.933" fill="#f67e7d" d="M 45.5,242.5 C 46.0339,249.53 45.0339,256.197 42.5,262.5C 42.7715,255.593 43.7715,248.926 45.5,242.5 Z"/></g>
<g><path style="opacity:1" fill="#f69290" d="M 367.5,253.5 C 367.068,254.71 366.401,255.71 365.5,256.5C 365.285,254.821 365.952,253.821 367.5,253.5 Z"/></g>
<g><path style="opacity:1" fill="#ed4744" d="M 298.5,242.5 C 300.767,248.599 301.1,254.933 299.5,261.5C 298.527,263.139 297.194,264.473 295.5,265.5C 294.956,263.42 294.122,261.42 293,259.5C 291.242,261.765 289.075,263.432 286.5,264.5C 286.5,264.167 286.5,263.833 286.5,263.5C 287.694,262.728 288.694,261.728 289.5,260.5C 290.458,260.047 291.292,259.381 292,258.5C 292.498,255.183 292.665,251.85 292.5,248.5C 293.104,252.973 294.437,257.306 296.5,261.5C 298.447,258.845 299.447,255.845 299.5,252.5C 299.276,249.145 298.943,245.812 298.5,242.5 Z"/></g>
<g><path style="opacity:1" fill="#f28182" d="M 552.5,255.5 C 552.158,256.338 551.492,256.672 550.5,256.5C 539.833,256.5 529.167,256.5 518.5,256.5C 518.5,257.5 518.5,258.5 518.5,259.5C 517.566,258.432 517.232,257.099 517.5,255.5C 529.167,255.5 540.833,255.5 552.5,255.5 Z"/></g>
<g><path style="opacity:1" fill="#fcd2cd" d="M 80.5,251.5 C 80.9536,256.661 79.9536,261.327 77.5,265.5C 77.6159,262.14 77.9492,258.807 78.5,255.5C 78.5,255.167 78.5,254.833 78.5,254.5C 79.1667,253.5 79.8333,252.5 80.5,251.5 Z"/></g>
<g><path style="opacity:1" fill="#ed2527" d="M 305.5,231.5 C 318.837,231.333 332.171,231.5 345.5,232C 349.964,234.277 352.631,237.777 353.5,242.5C 353.668,246.658 353.002,250.658 351.5,254.5C 350.167,255.167 349.167,256.167 348.5,257.5C 345.179,258.496 341.845,259.496 338.5,260.5C 338.624,261.107 338.957,261.44 339.5,261.5C 341.234,264.2 343.568,266.2 346.5,267.5C 347.167,268.833 348.167,269.833 349.5,270.5C 348.666,271.748 347.333,272.415 345.5,272.5C 343.452,272.328 341.452,271.995 339.5,271.5C 338.415,269.413 336.749,268.08 334.5,267.5C 329.232,263.902 324.565,259.568 320.5,254.5C 327.833,253.833 335.167,253.167 342.5,252.5C 342.5,252.167 342.5,251.833 342.5,251.5C 342.842,250.662 343.508,250.328 344.5,250.5C 345.748,249.666 346.415,248.333 346.5,246.5C 346.489,244.955 346.156,243.622 345.5,242.5C 344.5,241.833 343.5,241.167 342.5,240.5C 342.5,239.833 342.167,239.5 341.5,239.5C 332.014,238.506 322.348,238.173 312.5,238.5C 312.5,249.833 312.5,261.167 312.5,272.5C 310.167,272.5 307.833,272.5 305.5,272.5C 305.5,258.833 305.5,245.167 305.5,231.5 Z"/></g>
<g><path style="opacity:1" fill="#ee4a4e" d="M 342.5,252.5 C 335.167,253.167 327.833,253.833 320.5,254.5C 319.833,254.5 319.167,254.5 318.5,254.5C 326.097,252.533 334.097,251.866 342.5,252.5 Z"/></g>
<g><path style="opacity:1" fill="#f7a8a5" d="M 342.5,251.5 C 342.5,251.833 342.5,252.167 342.5,252.5C 334.097,251.866 326.097,252.533 318.5,254.5C 317.596,253.791 317.263,252.791 317.5,251.5C 325.833,251.5 334.167,251.5 342.5,251.5 Z"/></g>
<g><path style="opacity:1" fill="#f3746f" d="M 345.5,242.5 C 346.156,243.622 346.489,244.955 346.5,246.5C 346.415,248.333 345.748,249.666 344.5,250.5C 345.265,247.904 345.599,245.237 345.5,242.5 Z"/></g>
<g><path style="opacity:1" fill="#f27476" d="M 341.5,239.5 C 332.167,239.5 322.833,239.5 313.5,239.5C 313.828,250.679 313.495,261.679 312.5,272.5C 312.5,261.167 312.5,249.833 312.5,238.5C 322.348,238.173 332.014,238.506 341.5,239.5 Z"/></g>
<g><path style="opacity:1" fill="#fbd2cd" d="M 550.5,256.5 C 539.96,256.842 529.626,257.842 519.5,259.5C 519.167,259.5 518.833,259.5 518.5,259.5C 518.5,258.5 518.5,257.5 518.5,256.5C 529.167,256.5 539.833,256.5 550.5,256.5 Z"/></g>
<g><path style="opacity:1" fill="#f9b5b1" d="M 377.5,252.5 C 377.297,254.044 376.63,255.378 375.5,256.5C 381.807,257.664 388.141,257.831 394.5,257C 393.177,256.184 392.511,255.017 392.5,253.5C 393.167,253.833 393.833,254.167 394.5,254.5C 395.234,255.708 395.567,257.041 395.5,258.5C 388.416,257.874 381.75,258.541 375.5,260.5C 374.833,260.167 374.167,259.833 373.5,259.5C 373.725,256.454 375.058,254.121 377.5,252.5 Z"/></g>
<g><path style="opacity:1" fill="#f15b5d" d="M 395.5,258.5 C 389.167,259.167 382.833,259.833 376.5,260.5C 376.167,260.5 375.833,260.5 375.5,260.5C 381.75,258.541 388.416,257.874 395.5,258.5 Z"/></g>
<g><path style="opacity:1" fill="#fcbeba" d="M 420.5,257.5 C 422.861,258.895 424.528,260.895 425.5,263.5C 422.438,262.732 420.772,260.732 420.5,257.5 Z"/></g>
<g><path style="opacity:1" fill="#f79694" d="M 721.5,256.5 C 722.906,256.973 723.573,257.973 723.5,259.5C 722.094,259.027 721.427,258.027 721.5,256.5 Z"/></g>
<g><path style="opacity:1" fill="#f8aba7" d="M 348.5,257.5 C 345.826,259.568 342.826,260.901 339.5,261.5C 338.957,261.44 338.624,261.107 338.5,260.5C 341.845,259.496 345.179,258.496 348.5,257.5 Z"/></g>
<g><path style="opacity:1" fill="#f7928f" d="M 365.5,256.5 C 364.231,260.054 362.231,263.054 359.5,265.5C 360.37,262.622 361.703,259.955 363.5,257.5C 363.957,256.702 364.624,256.369 365.5,256.5 Z"/></g>
<g><path style="opacity:1" fill="#ec2326" d="M 401.5,252.5 C 403.655,255.603 405.989,258.603 408.5,261.5C 408.557,262.609 408.89,263.609 409.5,264.5C 409.427,266.027 410.094,267.027 411.5,267.5C 411.833,268.5 412.5,269.167 413.5,269.5C 413.5,269.833 413.5,270.167 413.5,270.5C 411.365,272.369 408.698,273.036 405.5,272.5C 405.5,271.833 405.167,271.5 404.5,271.5C 404.573,269.973 403.906,268.973 402.5,268.5C 402.672,267.508 402.338,266.842 401.5,266.5C 394.345,265.671 387.011,265.171 379.5,265C 378.956,264.283 378.289,263.783 377.5,263.5C 377.443,262.391 377.11,261.391 376.5,260.5C 382.833,259.833 389.167,259.167 395.5,258.5C 395.567,257.041 395.234,255.708 394.5,254.5C 395.943,249.245 398.276,248.578 401.5,252.5 Z"/></g>
<g><path style="opacity:1" fill="#fce0db" d="M 410.5,256.5 C 410.833,256.5 411.167,256.5 411.5,256.5C 412.298,260.089 413.631,263.422 415.5,266.5C 413.952,266.821 413.285,267.821 413.5,269.5C 412.5,269.167 411.833,268.5 411.5,267.5C 411.573,265.973 410.906,264.973 409.5,264.5C 408.89,263.609 408.557,262.609 408.5,261.5C 411.734,260.994 412.401,259.328 410.5,256.5 Z"/></g>
<g><path style="opacity:0.69" fill="#f78c8d" d="M 753.5,255.5 C 755.04,257.838 755.706,260.505 755.5,263.5C 753.777,261.22 753.111,258.553 753.5,255.5 Z"/></g>
<g><path style="opacity:1" fill="#ed2728" d="M 381.5,232.5 C 383.833,232.5 386.167,232.5 388.5,232.5C 390.177,235.025 391.677,237.691 393,240.5C 393.576,242.377 393.409,244.211 392.5,246C 392.95,247.285 393.617,248.452 394.5,249.5C 394.167,249.833 393.833,250.167 393.5,250.5C 392.358,249.174 391.024,248.174 389.5,247.5C 388.363,244.492 386.363,242.492 383.5,241.5C 381.54,245.143 379.54,248.809 377.5,252.5C 375.058,254.121 373.725,256.454 373.5,259.5C 371.782,261.223 370.449,263.223 369.5,265.5C 367.249,267.146 365.582,269.313 364.5,272C 363.167,272.167 361.833,272.333 360.5,272.5C 358.667,272.415 357.334,271.748 356.5,270.5C 357.248,268.668 358.248,267.001 359.5,265.5C 362.231,263.054 364.231,260.054 365.5,256.5C 366.401,255.71 367.068,254.71 367.5,253.5C 371.452,245.9 376.119,238.9 381.5,232.5 Z"/></g>
<g><path style="opacity:1" fill="#ed2125" d="M 473.5,265.5 C 485.701,265.84 497.701,266.84 509.5,268.5C 507.806,269.527 506.473,270.861 505.5,272.5C 492.451,272.796 479.451,272.463 466.5,271.5C 466.167,271.5 465.833,271.5 465.5,271.5C 465.5,258.5 465.5,245.5 465.5,232.5C 467.833,232.5 470.167,232.5 472.5,232.5C 472.172,243.679 472.505,254.679 473.5,265.5 Z"/></g>
<g><path style="opacity:1" fill="#fab7b3" d="M 425.5,263.5 C 437.469,264.416 449.469,264.749 461.5,264.5C 461.88,266.698 461.213,268.365 459.5,269.5C 459.414,268.504 459.748,267.671 460.5,267C 450.5,266.667 440.5,266.333 430.5,266C 428.685,265.243 427.019,264.41 425.5,263.5 Z"/></g>
<g><path style="opacity:1" fill="#fbd6d0" d="M 473.5,232.5 C 474.494,242.987 474.828,253.654 474.5,264.5C 486.518,264.832 498.518,264.499 510.5,263.5C 509.691,261.929 509.357,260.262 509.5,258.5C 510.992,262.341 513.325,265.675 516.5,268.5C 514.629,268.141 513.129,267.141 512,265.5C 511.768,266.737 511.268,267.737 510.5,268.5C 510.5,267.5 510.5,266.5 510.5,265.5C 498.167,265.5 485.833,265.5 473.5,265.5C 473.5,254.5 473.5,243.5 473.5,232.5 Z"/></g>
<g><path style="opacity:1" fill="#fab7b3" d="M 521.5,262.5 C 522.756,262.461 523.756,262.961 524.5,264C 536.162,264.5 547.829,264.667 559.5,264.5C 559.88,266.698 559.213,268.365 557.5,269.5C 557.414,268.504 557.748,267.671 558.5,267C 547.833,266.667 537.167,266.333 526.5,266C 524.119,265.777 522.453,264.61 521.5,262.5 Z"/></g>
<g><path style="opacity:1" fill="#f89c99" d="M 238.5,264.5 C 240.5,265.833 242.167,267.5 243.5,269.5C 240.833,268.833 239.167,267.167 238.5,264.5 Z"/></g>
<g><path style="opacity:1" fill="#f59290" d="M 377.5,263.5 C 378.289,263.783 378.956,264.283 379.5,265C 387.011,265.171 394.345,265.671 401.5,266.5C 393.826,266.666 386.159,266.5 378.5,266C 377.748,265.329 377.414,264.496 377.5,263.5 Z"/></g>
<g><path style="opacity:1" fill="#f28383" d="M 473.5,265.5 C 485.833,265.5 498.167,265.5 510.5,265.5C 510.5,266.5 510.5,267.5 510.5,268.5C 510.167,268.5 509.833,268.5 509.5,268.5C 497.701,266.84 485.701,265.84 473.5,265.5 Z"/></g>
<g><path style="opacity:0.039" fill="#fab8b7" d="M 755.5,263.5 C 756.793,264.842 757.626,266.509 758,268.5C 759.38,275.779 760.214,283.112 760.5,290.5C 759.833,288.5 759.167,286.5 758.5,284.5C 758.042,277.418 757.042,270.418 755.5,263.5 Z"/></g>
<g><path style="opacity:1" fill="#fbc8c2" d="M 299.5,261.5 C 298.269,265.734 295.602,268.734 291.5,270.5C 292.833,268.833 294.167,267.167 295.5,265.5C 297.194,264.473 298.527,263.139 299.5,261.5 Z"/></g>
<g><path style="opacity:1" fill="#f47a79" d="M 409.5,264.5 C 410.906,264.973 411.573,265.973 411.5,267.5C 410.094,267.027 409.427,266.027 409.5,264.5 Z"/></g>
<g><path style="opacity:0.996" fill="#f36d6a" d="M 334.5,267.5 C 336.749,268.08 338.415,269.413 339.5,271.5C 337.251,270.92 335.585,269.587 334.5,267.5 Z"/></g>
<g><path style="opacity:1" fill="#ed2426" d="M 282.5,232.5 C 284.167,232.5 285.833,232.5 287.5,232.5C 290.009,233.921 292.343,235.588 294.5,237.5C 295.08,239.749 296.413,241.415 298.5,242.5C 298.943,245.812 299.276,249.145 299.5,252.5C 299.447,255.845 298.447,258.845 296.5,261.5C 294.437,257.306 293.104,252.973 292.5,248.5C 292.672,247.508 292.338,246.842 291.5,246.5C 290.188,243.339 287.855,241.339 284.5,240.5C 284.082,239.778 283.416,239.278 282.5,239C 272.5,238.333 262.5,238.333 252.5,239C 251.584,239.278 250.918,239.778 250.5,240.5C 248.205,241.136 246.539,242.469 245.5,244.5C 244.21,245.058 243.377,246.058 243,247.5C 241.607,254.369 243.774,259.703 249.5,263.5C 250.398,264.158 251.398,264.824 252.5,265.5C 263.945,267.048 275.279,266.714 286.5,264.5C 289.075,263.432 291.242,261.765 293,259.5C 294.122,261.42 294.956,263.42 295.5,265.5C 294.167,267.167 292.833,268.833 291.5,270.5C 288.888,271.371 286.221,272.037 283.5,272.5C 271.136,272.752 258.803,272.418 246.5,271.5C 246.027,270.094 245.027,269.427 243.5,269.5C 242.167,267.5 240.5,265.833 238.5,264.5C 232.762,255.196 233.262,246.196 240,237.5C 241.734,235.549 243.901,234.549 246.5,234.5C 248.179,234.108 249.846,233.608 251.5,233C 261.828,232.5 272.161,232.334 282.5,232.5 Z"/></g>
<g><path style="opacity:1" fill="#fab6b2" d="M 249.5,263.5 C 261.84,264.812 274.173,264.812 286.5,263.5C 286.5,263.833 286.5,264.167 286.5,264.5C 275.279,266.714 263.945,267.048 252.5,265.5C 251.398,264.824 250.398,264.158 249.5,263.5 Z"/></g>
<g><path style="opacity:1" fill="#fabab6" d="M 291.5,246.5 C 292.338,246.842 292.672,247.508 292.5,248.5C 292.665,251.85 292.498,255.183 292,258.5C 291.292,259.381 290.458,260.047 289.5,260.5C 291.299,256.097 291.966,251.43 291.5,246.5 Z"/></g>
<g><path style="opacity:1" fill="#fabdb8" d="M 250.5,240.5 C 249.421,242.543 247.754,243.876 245.5,244.5C 246.539,242.469 248.205,241.136 250.5,240.5 Z"/></g>
<g><path style="opacity:1" fill="#fdfbfb" d="M 250.5,240.5 C 261.833,240.5 273.167,240.5 284.5,240.5C 287.855,241.339 290.188,243.339 291.5,246.5C 291.966,251.43 291.299,256.097 289.5,260.5C 288.694,261.728 287.694,262.728 286.5,263.5C 274.173,264.812 261.84,264.812 249.5,263.5C 243.774,259.703 241.607,254.369 243,247.5C 243.377,246.058 244.21,245.058 245.5,244.5C 247.754,243.876 249.421,242.543 250.5,240.5 Z"/></g>
<g><path style="opacity:1" fill="#fbbfba" d="M 284.5,240.5 C 273.167,240.5 261.833,240.5 250.5,240.5C 250.918,239.778 251.584,239.278 252.5,239C 262.5,238.333 272.5,238.333 282.5,239C 283.416,239.278 284.082,239.778 284.5,240.5 Z"/></g>
<g><path style="opacity:1" fill="#fcd8d4" d="M 346.5,267.5 C 348.094,267.92 349.594,268.586 351,269.5C 352.726,268.338 354.226,268.671 355.5,270.5C 355.5,271.5 355.5,272.5 355.5,273.5C 358.5,273.5 361.5,273.5 364.5,273.5C 356.644,274.247 348.644,274.247 340.5,273.5C 344.226,273.823 347.893,273.489 351.5,272.5C 351.145,271.478 350.478,270.811 349.5,270.5C 348.167,269.833 347.167,268.833 346.5,267.5 Z"/></g>
<g><path style="opacity:1" fill="#f9b1ad" d="M 509.5,268.5 C 508.864,270.795 507.531,272.461 505.5,273.5C 505.5,273.167 505.5,272.833 505.5,272.5C 506.473,270.861 507.806,269.527 509.5,268.5 Z"/></g>
<g><path style="opacity:1" fill="#ee4c4f" d="M 78.5,255.5 C 77.9492,258.807 77.6159,262.14 77.5,265.5C 76.5343,273.08 76.201,280.747 76.5,288.5C 75.3443,281.011 75.1777,273.345 76,265.5C 76.0265,261.821 76.8598,258.488 78.5,255.5 Z"/></g>
<g><path style="opacity:1" fill="#f79694" d="M 243.5,269.5 C 245.027,269.427 246.027,270.094 246.5,271.5C 244.973,271.573 243.973,270.906 243.5,269.5 Z"/></g>
<g><path style="opacity:1" fill="#f8a4a0" d="M 402.5,268.5 C 403.906,268.973 404.573,269.973 404.5,271.5C 403.094,271.027 402.427,270.027 402.5,268.5 Z"/></g>
<g><path style="opacity:1" fill="#fcd1cb" d="M 724.5,263.5 C 726.472,266.084 727.472,269.084 727.5,272.5C 726.351,272.209 725.684,271.376 725.5,270C 724.923,267.863 724.59,265.696 724.5,263.5 Z"/></g>
<g><path style="opacity:1" fill="#f47b7b" d="M 246.5,271.5 C 258.803,272.418 271.136,272.752 283.5,272.5C 272.007,273.659 260.341,273.826 248.5,273C 247.584,272.722 246.918,272.222 246.5,271.5 Z"/></g>
<g><path style="opacity:1" fill="#f26a6b" d="M 349.5,270.5 C 350.478,270.811 351.145,271.478 351.5,272.5C 347.893,273.489 344.226,273.823 340.5,273.5C 340.167,272.833 339.833,272.167 339.5,271.5C 341.452,271.995 343.452,272.328 345.5,272.5C 347.333,272.415 348.666,271.748 349.5,270.5 Z"/></g>
<g><path style="opacity:1" fill="#f58382" d="M 369.5,265.5 C 368.331,268.511 366.664,271.178 364.5,273.5C 361.5,273.5 358.5,273.5 355.5,273.5C 355.5,272.5 355.5,271.5 355.5,270.5C 355.833,270.5 356.167,270.5 356.5,270.5C 357.334,271.748 358.667,272.415 360.5,272.5C 361.833,272.333 363.167,272.167 364.5,272C 365.582,269.313 367.249,267.146 369.5,265.5 Z"/></g>
<g><path style="opacity:1" fill="#f37677" d="M 413.5,270.5 C 414.404,271.209 414.737,272.209 414.5,273.5C 411.287,273.81 408.287,273.477 405.5,272.5C 408.698,273.036 411.365,272.369 413.5,270.5 Z"/></g>
<g><path style="opacity:1" fill="#f47a7a" d="M 459.5,269.5 C 459.489,271.017 458.823,272.184 457.5,273C 446.833,273.667 436.167,273.667 425.5,273C 424.584,272.722 423.918,272.222 423.5,271.5C 434.478,272.547 445.478,272.713 456.5,272C 457.373,270.955 458.373,270.122 459.5,269.5 Z"/></g>
<g><path style="opacity:1" fill="#f36e70" d="M 466.5,271.5 C 479.451,272.463 492.451,272.796 505.5,272.5C 505.5,272.833 505.5,273.167 505.5,273.5C 492.829,273.667 480.162,273.5 467.5,273C 466.944,272.617 466.611,272.117 466.5,271.5 Z"/></g>
<g><path style="opacity:1" fill="#f5807f" d="M 557.5,269.5 C 557.489,271.017 556.823,272.184 555.5,273C 544.833,273.667 534.167,273.667 523.5,273C 522.584,272.722 521.918,272.222 521.5,271.5C 532.466,272.599 543.466,272.765 554.5,272C 555.373,270.955 556.373,270.122 557.5,269.5 Z"/></g>
<g><path style="opacity:1" fill="#f8a8a4" d="M 728.5,277.5 C 729.768,279.905 730.435,282.572 730.5,285.5C 728.96,283.162 728.294,280.495 728.5,277.5 Z"/></g>
<g><path style="opacity:1" fill="#787878" d="M 559.5,297.5 C 450.999,297.833 342.665,297.499 234.5,296.5C 342.835,296.833 451.169,296.5 559.5,295.5C 451.098,294.169 342.765,294.169 234.5,295.5C 234.5,295.167 234.5,294.833 234.5,294.5C 342.999,293.501 451.665,293.167 560.5,293.5C 560.768,295.099 560.434,296.432 559.5,297.5 Z"/></g>
<g><path style="opacity:1" fill="#f69694" d="M 730.5,289.5 C 731.657,297.656 731.823,305.99 731,314.5C 730.768,315.737 730.268,316.737 729.5,317.5C 730.387,308.199 730.721,298.866 730.5,289.5 Z"/></g>
<g><path style="opacity:1" fill="#080808" d="M 234.5,296.5 C 234.5,296.167 234.5,295.833 234.5,295.5C 342.765,294.169 451.098,294.169 559.5,295.5C 451.169,296.5 342.835,296.833 234.5,296.5 Z"/></g>
<g><path style="opacity:1" fill="#d4d3d3" d="M 234.5,294.5 C 234.5,294.833 234.5,295.167 234.5,295.5C 234.5,295.833 234.5,296.167 234.5,296.5C 342.665,297.499 450.999,297.833 559.5,297.5C 451.001,298.499 342.335,298.833 233.5,298.5C 233.232,296.901 233.566,295.568 234.5,294.5 Z"/></g>
<g><path style="opacity:1" fill="#ef4f52" d="M 758.5,284.5 C 759.167,286.5 759.833,288.5 760.5,290.5C 760.5,296.5 760.5,302.5 760.5,308.5C 759.833,309.5 759.167,310.5 758.5,311.5C 758.5,302.5 758.5,293.5 758.5,284.5 Z"/></g>
<g><path style="opacity:0.584" fill="#f78c8e" d="M 43.5,299.5 C 45.13,302.53 46.13,305.863 46.5,309.5C 45.8333,309.5 45.1667,309.5 44.5,309.5C 44.1667,306.167 43.8333,302.833 43.5,299.5 Z"/></g>
<g><path style="opacity:1" fill="#f3736f" d="M 77.5,296.5 C 79.4549,302.986 81.1216,309.653 82.5,316.5C 82.5,316.833 82.5,317.167 82.5,317.5C 78.5115,311.207 76.8448,304.207 77.5,296.5 Z"/></g>
<g><path style="opacity:1" fill="#f58989" d="M 760.5,308.5 C 760.5,311.833 760.5,315.167 760.5,318.5C 759.833,318.5 759.167,318.5 758.5,318.5C 758.5,316.167 758.5,313.833 758.5,311.5C 759.167,310.5 759.833,309.5 760.5,308.5 Z"/></g>
<g><path style="opacity:0.039" fill="#fab9b9" d="M 44.5,309.5 C 45.1667,309.5 45.8333,309.5 46.5,309.5C 47.2436,314.885 48.2436,320.218 49.5,325.5C 48.0337,324.653 47.2004,323.32 47,321.5C 46.227,317.468 45.3937,313.468 44.5,309.5 Z"/></g>
<g><path style="opacity:1" fill="#fbc1bc" d="M 82.5,316.5 C 84.7403,320.098 86.0736,324.098 86.5,328.5C 84.4155,325.199 83.0822,321.532 82.5,317.5C 82.5,317.167 82.5,316.833 82.5,316.5 Z"/></g>
<g><path style="opacity:0.282" fill="#fab6b5" d="M 758.5,318.5 C 759.167,318.5 759.833,318.5 760.5,318.5C 759.35,323.066 758.516,327.732 758,332.5C 757.243,334.315 756.41,335.981 755.5,337.5C 756.608,331.185 757.608,324.852 758.5,318.5 Z"/></g>
<g><path style="opacity:1" fill="#7d7c7c" d="M 342.5,321.5 C 338.388,321.123 334.721,322.123 331.5,324.5C 332.116,322.583 333.45,321.416 335.5,321C 338.039,320.204 340.372,320.371 342.5,321.5 Z"/></g>
<g><path style="opacity:1" fill="#a2a1a1" d="M 417.5,321.5 C 415.5,321.5 413.5,321.5 411.5,321.5C 411.177,328.022 411.51,334.355 412.5,340.5C 412.5,341.5 412.5,342.5 412.5,343.5C 411.883,343.389 411.383,343.056 411,342.5C 410.5,335.174 410.334,327.841 410.5,320.5C 413.059,320.198 415.393,320.532 417.5,321.5 Z"/></g>
<g><path style="opacity:1" fill="#919191" d="M 418.5,321.5 C 419.328,327.653 419.828,333.987 420,340.5C 421.699,341.406 423.533,341.739 425.5,341.5C 423.44,342.811 421.274,342.811 419,341.5C 418.501,335.509 418.334,329.509 418.5,323.5C 418.5,322.833 418.5,322.167 418.5,321.5 Z"/></g>
<g><path style="opacity:1" fill="#151515" d="M 342.5,321.5 C 344.784,321.975 346.784,322.975 348.5,324.5C 348.703,326.044 349.37,327.378 350.5,328.5C 348.257,329.474 345.924,329.808 343.5,329.5C 342.235,325.19 339.902,324.523 336.5,327.5C 335.34,331.459 335.173,335.459 336,339.5C 338.994,343.35 341.827,343.35 344.5,339.5C 346.396,338.534 348.396,338.201 350.5,338.5C 349.602,344.722 345.935,347.722 339.5,347.5C 333.276,347.106 329.61,343.772 328.5,337.5C 327.963,332.734 328.963,328.4 331.5,324.5C 334.721,322.123 338.388,321.123 342.5,321.5 Z"/></g>
<g><path style="opacity:1" fill="#050505" d="M 357.5,322.5 C 359.5,322.5 361.5,322.5 363.5,322.5C 363.177,329.022 363.51,335.355 364.5,341.5C 364.833,341.5 365.167,341.5 365.5,341.5C 368.287,342.477 371.287,342.81 374.5,342.5C 374.5,343.833 374.5,345.167 374.5,346.5C 368.833,346.5 363.167,346.5 357.5,346.5C 357.5,338.5 357.5,330.5 357.5,322.5 Z"/></g>
<g><path style="opacity:1" fill="#393939" d="M 357.5,322.5 C 357.5,322.167 357.5,321.833 357.5,321.5C 359.833,321.5 362.167,321.5 364.5,321.5C 364.5,328.167 364.5,334.833 364.5,341.5C 363.51,335.355 363.177,329.022 363.5,322.5C 361.5,322.5 359.5,322.5 357.5,322.5 Z"/></g>
<g><path style="opacity:1" fill="#a2a2a2" d="M 357.5,321.5 C 359.948,320.527 362.615,320.194 365.5,320.5C 365.5,327.5 365.5,334.5 365.5,341.5C 365.167,341.5 364.833,341.5 364.5,341.5C 364.5,334.833 364.5,328.167 364.5,321.5C 362.167,321.5 359.833,321.5 357.5,321.5 Z"/></g>
<g><path style="opacity:1" fill="#151515" d="M 403.5,341.5 C 401.5,342.833 399.833,344.5 398.5,346.5C 394.548,347.272 390.548,347.605 386.5,347.5C 382.766,344.534 380.432,340.7 379.5,336C 380.096,332.118 380.929,328.284 382,324.5C 394.916,317.45 402.416,321.117 404.5,335.5C 404.328,337.548 403.995,339.548 403.5,341.5 Z"/></g>
<g><path style="opacity:1" fill="#393939" d="M 417.5,321.5 C 417.833,321.5 418.167,321.5 418.5,321.5C 418.5,322.167 418.5,322.833 418.5,323.5C 416.621,322.659 414.621,322.325 412.5,322.5C 412.5,328.5 412.5,334.5 412.5,340.5C 411.51,334.355 411.177,328.022 411.5,321.5C 413.5,321.5 415.5,321.5 417.5,321.5 Z"/></g>
<g><path style="opacity:1" fill="#0e0e0e" d="M 427.5,321.5 C 429.167,321.5 430.833,321.5 432.5,321.5C 432.666,327.842 432.5,334.175 432,340.5C 431.401,343.254 429.901,345.254 427.5,346.5C 421.886,348.536 416.886,347.536 412.5,343.5C 412.5,342.5 412.5,341.5 412.5,340.5C 412.5,334.5 412.5,328.5 412.5,322.5C 414.621,322.325 416.621,322.659 418.5,323.5C 418.334,329.509 418.501,335.509 419,341.5C 421.274,342.811 423.44,342.811 425.5,341.5C 426.222,341.082 426.722,340.416 427,339.5C 427.499,333.509 427.666,327.509 427.5,321.5 Z"/></g>
<g><path style="opacity:1" fill="#757575" d="M 427.5,321.5 C 429.265,320.539 431.265,320.205 433.5,320.5C 433.666,327.508 433.5,334.508 433,341.5C 432.563,344.772 430.73,346.439 427.5,346.5C 429.901,345.254 431.401,343.254 432,340.5C 432.5,334.175 432.666,327.842 432.5,321.5C 430.833,321.5 429.167,321.5 427.5,321.5 Z"/></g>
<g><path style="opacity:1" fill="#a4a4a4" d="M 456.5,321.5 C 451.5,321.5 446.5,321.5 441.5,321.5C 441.5,330.167 441.5,338.833 441.5,347.5C 440.507,338.682 440.173,329.682 440.5,320.5C 446.026,320.179 451.36,320.512 456.5,321.5 Z"/></g>
<g><path style="opacity:1" fill="#414141" d="M 456.5,321.5 C 458.565,321.953 460.232,322.953 461.5,324.5C 455.319,322.748 448.986,322.081 442.5,322.5C 442.5,330.5 442.5,338.5 442.5,346.5C 446.833,346.5 451.167,346.5 455.5,346.5C 451.03,347.486 446.363,347.819 441.5,347.5C 441.5,338.833 441.5,330.167 441.5,321.5C 446.5,321.5 451.5,321.5 456.5,321.5 Z"/></g>
<g><path style="opacity:1" fill="#0a0a0a" d="M 461.5,324.5 C 461.427,326.027 462.094,327.027 463.5,327.5C 464.051,330.807 464.384,334.14 464.5,337.5C 464.567,338.959 464.234,340.292 463.5,341.5C 461.809,342.864 460.142,344.197 458.5,345.5C 457.791,346.404 456.791,346.737 455.5,346.5C 451.167,346.5 446.833,346.5 442.5,346.5C 442.5,338.5 442.5,330.5 442.5,322.5C 448.986,322.081 455.319,322.748 461.5,324.5 Z"/></g>
<g><path style="opacity:1" fill="#b5b5b5" d="M 395.5,328.5 C 389.94,326.466 387.607,328.466 388.5,334.5C 387.509,339.552 389.509,341.886 394.5,341.5C 388.563,343.44 386.229,341.107 387.5,334.5C 386.573,330.122 388.073,327.122 392,325.5C 393.95,325.707 395.116,326.707 395.5,328.5 Z"/></g>
<g><path style="opacity:1" fill="#c0c0c0" d="M 427.5,321.5 C 427.666,327.509 427.499,333.509 427,339.5C 426.722,340.416 426.222,341.082 425.5,341.5C 426.052,334.686 426.719,328.019 427.5,321.5 Z"/></g>
<g><path style="opacity:1" fill="#f5f5f4" d="M 395.5,328.5 C 396.161,330.134 396.494,331.967 396.5,334C 396.7,336.866 396.033,339.366 394.5,341.5C 389.509,341.886 387.509,339.552 388.5,334.5C 387.607,328.466 389.94,326.466 395.5,328.5 Z"/></g>
<g><path style="opacity:1" fill="#8b8b8b" d="M 449.5,326.5 C 449.5,331.5 449.5,336.5 449.5,341.5C 451.167,341.5 452.833,341.5 454.5,341.5C 452.735,342.461 450.735,342.795 448.5,342.5C 448.179,336.974 448.512,331.64 449.5,326.5 Z"/></g>
<g><path style="opacity:1" fill="#f5f5f4" d="M 454.5,327.5 C 457.088,332.105 457.088,336.772 454.5,341.5C 452.833,341.5 451.167,341.5 449.5,341.5C 449.5,336.5 449.5,331.5 449.5,326.5C 451.338,325.322 453.005,325.655 454.5,327.5 Z"/></g>
<g><path style="opacity:0.039" fill="#faaeae" d="M 49.5,325.5 C 53.2016,335.243 57.2016,344.91 61.5,354.5C 60.5416,354.047 59.7083,353.381 59,352.5C 54.6687,343.852 51.502,334.852 49.5,325.5 Z"/></g>
<g><path style="opacity:0.996" fill="#f26161" d="M 728.5,325.5 C 728.706,328.495 728.04,331.162 726.5,333.5C 726.565,330.572 727.232,327.905 728.5,325.5 Z"/></g>
<g><path style="opacity:1" fill="#adadad" d="M 348.5,324.5 C 351.139,325.706 351.972,327.706 351,330.5C 349.769,331.108 348.436,331.441 347,331.5C 345.319,331.392 344.152,330.725 343.5,329.5C 345.924,329.808 348.257,329.474 350.5,328.5C 349.37,327.378 348.703,326.044 348.5,324.5 Z"/></g>
<g><path style="opacity:1" fill="#7f7f7f" d="M 331.5,324.5 C 328.963,328.4 327.963,332.734 328.5,337.5C 327.362,334.696 327.195,331.696 328,328.5C 328.66,326.676 329.827,325.343 331.5,324.5 Z"/></g>
<g><path style="opacity:1" fill="#676767" d="M 463.5,327.5 C 464.972,329.117 465.639,331.117 465.5,333.5C 465.489,335.045 465.156,336.378 464.5,337.5C 464.384,334.14 464.051,330.807 463.5,327.5 Z"/></g>
<g><path style="opacity:1" fill="#939393" d="M 454.5,327.5 C 455.15,327.804 455.817,328.137 456.5,328.5C 457.733,332.333 457.733,336.167 456.5,340C 456.164,341.03 455.497,341.53 454.5,341.5C 457.088,336.772 457.088,332.105 454.5,327.5 Z"/></g>
<g><path style="opacity:0.992" fill="#f25d5c" d="M 726.5,333.5 C 726.834,336.491 725.834,338.824 723.5,340.5C 723.935,337.843 724.935,335.509 726.5,333.5 Z"/></g>
<g><path style="opacity:1" fill="#f58a88" d="M 92.5,341.5 C 93.9063,341.973 94.573,342.973 94.5,344.5C 93.0937,344.027 92.427,343.027 92.5,341.5 Z"/></g>
<g><path style="opacity:1" fill="#8f8f8f" d="M 463.5,341.5 C 463.033,344.297 461.367,345.631 458.5,345.5C 460.142,344.197 461.809,342.864 463.5,341.5 Z"/></g>
<g><path style="opacity:1" fill="#a3a3a3" d="M 403.5,341.5 C 402.833,344.167 401.167,345.833 398.5,346.5C 399.833,344.5 401.5,342.833 403.5,341.5 Z"/></g>
<g><path style="opacity:1" fill="#5d5d5d" d="M 357.5,321.5 C 357.5,321.833 357.5,322.167 357.5,322.5C 357.5,330.5 357.5,338.5 357.5,346.5C 363.167,346.5 368.833,346.5 374.5,346.5C 374.5,345.167 374.5,343.833 374.5,342.5C 371.287,342.81 368.287,342.477 365.5,341.5C 368.833,341.5 372.167,341.5 375.5,341.5C 375.5,343.5 375.5,345.5 375.5,347.5C 369.167,347.5 362.833,347.5 356.5,347.5C 356.174,338.651 356.507,329.984 357.5,321.5 Z"/></g>
<g><path style="opacity:1" fill="#a09f9f" d="M 398.5,346.5 C 398.389,347.117 398.056,347.617 397.5,348C 393.642,348.81 389.976,348.643 386.5,347.5C 390.548,347.605 394.548,347.272 398.5,346.5 Z"/></g>
<g><path style="opacity:1" fill="#f79391" d="M 719.5,349.5 C 719.25,351.674 718.25,353.341 716.5,354.5C 716.75,352.326 717.75,350.659 719.5,349.5 Z"/></g>
<g><path style="opacity:0.439" fill="#f9a3a3" d="M 754.5,343.5 C 752.571,351.346 749.571,358.68 745.5,365.5C 747.788,358.98 749.955,352.313 752,345.5C 752.708,344.619 753.542,343.953 754.5,343.5 Z"/></g>
<g><path style="opacity:0.282" fill="#f9a5a5" d="M 61.5,354.5 C 67.4248,363.448 73.4248,372.448 79.5,381.5C 78.3569,381.092 77.3569,380.425 76.5,379.5C 72.8605,374.027 69.0271,368.694 65,363.5C 63.8202,360.479 62.6535,357.479 61.5,354.5 Z"/></g>
<g><path style="opacity:1" fill="#f47672" d="M 713.5,360.5 C 711.984,363.533 709.984,366.2 707.5,368.5C 708.529,365.109 710.529,362.443 713.5,360.5 Z"/></g>
<g><path style="opacity:1" fill="#f4726f" d="M 706.5,369.5 C 705.92,371.749 704.587,373.415 702.5,374.5C 703.08,372.251 704.413,370.585 706.5,369.5 Z"/></g>
<g><path style="opacity:0.282" fill="#f9a1a1" d="M 745.5,365.5 C 742.302,373.658 737.635,380.658 731.5,386.5C 735.933,379.286 740.6,372.286 745.5,365.5 Z"/></g>
<g><path style="opacity:1" fill="#f46e6c" d="M 698.5,378.5 C 696.761,381.243 694.427,383.243 691.5,384.5C 693.239,381.757 695.573,379.757 698.5,378.5 Z"/></g>
<g><path style="opacity:0.039" fill="#faaeae" d="M 79.5,381.5 C 85.8875,387.221 91.8875,393.221 97.5,399.5C 95.4048,398.588 93.4048,397.421 91.5,396C 87.2651,391.274 83.2651,386.441 79.5,381.5 Z"/></g>
<g><path style="opacity:0.282" fill="#f9acab" d="M 731.5,386.5 C 724.45,398.551 714.783,407.884 702.5,414.5C 707.06,409.875 712.06,405.709 717.5,402C 722.281,396.937 726.948,391.77 731.5,386.5 Z"/></g>
<g><path style="opacity:1" fill="#fbc3be" d="M 157.5,398.5 C 162.365,398.592 166.699,399.925 170.5,402.5C 165.835,401.943 161.502,400.61 157.5,398.5 Z"/></g>
<g><path style="opacity:0.141" fill="#fbbaba" d="M 97.5,399.5 C 99.754,400.124 101.421,401.457 102.5,403.5C 99.796,403.33 98.1293,401.997 97.5,399.5 Z"/></g>
<g><path style="opacity:1" fill="#f47775" d="M 659.5,402.5 C 655.874,404.498 651.874,405.498 647.5,405.5C 651.239,403.898 655.239,402.898 659.5,402.5 Z"/></g>
<g><path style="opacity:0.039" fill="#fbbbba" d="M 102.5,403.5 C 104.122,404.122 105.455,405.122 106.5,406.5C 104.381,406.532 103.048,405.532 102.5,403.5 Z"/></g>
<g><path style="opacity:1" fill="#fbc2bd" d="M 182.5,405.5 C 187.122,405.156 191.455,405.823 195.5,407.5C 190.951,407.376 186.618,406.709 182.5,405.5 Z"/></g>
<g><path style="opacity:1" fill="#f68a88" d="M 645.5,405.5 C 643.162,407.04 640.495,407.706 637.5,407.5C 639.905,406.232 642.572,405.565 645.5,405.5 Z"/></g>
<g><path style="opacity:0.039" fill="#fab8b8" d="M 106.5,406.5 C 108.882,407.351 110.882,408.684 112.5,410.5C 109.733,410.13 107.733,408.796 106.5,406.5 Z"/></g>
<g><path style="opacity:0.992" fill="#f24e4d" d="M 195.5,407.5 C 342.167,407.5 488.833,407.5 635.5,407.5C 632.695,408.319 629.695,408.819 626.5,409C 554.667,409.167 482.833,409.333 411,409.5C 338.83,409.5 266.997,408.833 195.5,407.5 Z"/></g>
<g><path style="opacity:0.141" fill="#fababa" d="M 112.5,410.5 C 114.853,411.34 116.853,412.674 118.5,414.5C 115.802,414.155 113.802,412.822 112.5,410.5 Z"/></g>
<g><path style="opacity:0.439" fill="#f9aaaa" d="M 118.5,414.5 C 120.38,414.229 121.713,414.896 122.5,416.5C 120.847,416.34 119.514,415.674 118.5,414.5 Z"/></g>
<g><path style="opacity:0.141" fill="#fab4b3" d="M 124.5,417.5 C 135.181,422.339 146.181,426.339 157.5,429.5C 154.26,429.232 151.094,428.566 148,427.5C 147.228,427.645 146.561,427.978 146,428.5C 140.105,425.385 133.605,422.552 126.5,420C 125.619,419.292 124.953,418.458 124.5,417.5 Z"/></g>
<g><path style="opacity:0.439" fill="#f9a3a3" d="M 702.5,414.5 C 697.593,419.239 691.26,422.572 683.5,424.5C 683.369,423.624 683.702,422.957 684.5,422.5C 690.555,419.783 696.555,417.116 702.5,414.5 Z"/></g>
<g><path style="opacity:0.439" fill="#f99b9b" d="M 683.5,424.5 C 676.387,428.196 668.72,430.196 660.5,430.5C 659.833,430.5 659.167,430.5 658.5,430.5C 658.5,430.167 658.5,429.833 658.5,429.5C 666.963,428.368 675.296,426.701 683.5,424.5 Z"/></g>
<g><path style="opacity:0.788" fill="#f67f81" d="M 159.5,429.5 C 162.385,429.194 165.052,429.527 167.5,430.5C 167.5,431.167 167.167,431.5 166.5,431.5C 164.167,430.833 161.833,430.167 159.5,429.5 Z"/></g>
<g><path style="opacity:0.992" fill="#ef2933" d="M 658.5,429.5 C 658.5,429.833 658.5,430.167 658.5,430.5C 496.354,431.828 334.354,431.828 172.5,430.5C 331.5,430.667 490.5,430.5 649.5,430C 652.372,428.549 655.372,428.382 658.5,429.5 Z"/></g>
<g><path style="opacity:0.141" fill="#fbd1d0" d="M 167.5,430.5 C 169.167,430.5 170.833,430.5 172.5,430.5C 334.354,431.828 496.354,431.828 658.5,430.5C 659.167,430.5 659.833,430.5 660.5,430.5C 660.196,431.15 659.863,431.817 659.5,432.5C 495.501,433.667 331.501,433.833 167.5,433C 166.944,432.617 166.611,432.117 166.5,431.5C 167.167,431.5 167.5,431.167 167.5,430.5 Z"/></g>
</svg>
