<svg xmlns="http://www.w3.org/2000/svg" viewBox="0 0 256 256"><title>icon</title><path d="M122.993,113.02a2.5,2.5,0,0,1-2.307-3.461L130.7,85.49a2.5,2.5,0,0,1,4.617,1.92L125.3,111.479A2.5,2.5,0,0,1,122.993,113.02Z" fill="#f9b087"/><path d="M147.947,112.938a2.5,2.5,0,0,1-1.767-4.268l10.185-10.186L146.18,88.3a2.5,2.5,0,1,1,3.535-3.535l11.953,11.953a2.5,2.5,0,0,1,0,3.535l-11.953,11.953A2.494,2.494,0,0,1,147.947,112.938Z" fill="#f9b087"/><path d="M108.053,112.938a2.494,2.494,0,0,1-1.768-.733L94.332,100.252a2.5,2.5,0,0,1,0-3.535l11.953-11.953A2.5,2.5,0,1,1,109.82,88.3L99.635,98.484,109.82,108.67a2.5,2.5,0,0,1-1.767,4.268Z" fill="#f9b087"/><path d="M78.359,136.1H40.479a2.5,2.5,0,0,0-2.5,2.5v37.879a2.5,2.5,0,0,0,2.5,2.5h37.88a2.5,2.5,0,0,0,2.5-2.5V138.6A2.5,2.5,0,0,0,78.359,136.1Zm-6.035,5-12.9,12.9-12.9-12.9Zm-29.345,3.534,12.905,12.905-12.9,12.906Zm3.535,29.345,12.9-12.9,12.905,12.9Zm29.345-3.535-12.9-12.9,12.9-12.9Z" fill="#f9b087"/><path d="M215.521,136.1H177.642a2.5,2.5,0,0,0-2.5,2.5v37.879a2.5,2.5,0,0,0,2.5,2.5h37.879a2.5,2.5,0,0,0,2.5-2.5V138.6A2.5,2.5,0,0,0,215.521,136.1Zm-35.379,8.536,12.9,12.9-12.9,12.9Zm3.534-3.536h25.81l-12.9,12.905Zm12.905,19.975,12.9,12.9H183.677Zm3.535-3.535,12.9-12.9v25.81Z" fill="#f9b087"/><path d="M232.333,28.6H23.667a2.5,2.5,0,0,0-2.5,2.5V224.9a2.5,2.5,0,0,0,2.5,2.5H232.333a2.5,2.5,0,0,0,2.5-2.5V31.1A2.5,2.5,0,0,0,232.333,28.6Zm-2.5,5V55.1H26.167V33.6ZM26.167,222.4V60.1H229.833V222.4Z" fill="#846f75"/><path d="M39,46.6H50a2.5,2.5,0,0,0,0-5H39a2.5,2.5,0,0,0,0,5Z" fill="#846f75"/><path d="M62.581,46.6h11a2.5,2.5,0,0,0,0-5h-11a2.5,2.5,0,0,0,0,5Z" fill="#846f75"/><path d="M86.163,46.6h11a2.5,2.5,0,0,0,0-5h-11a2.5,2.5,0,0,0,0,5Z" fill="#846f75"/><path d="M205.662,46.6h11a2.5,2.5,0,1,0,0-5h-11a2.5,2.5,0,0,0,0,5Z" fill="#846f75"/><path d="M215.521,95.984H177.642a2.5,2.5,0,0,0,0,5h37.879a2.5,2.5,0,0,0,0-5Z" fill="#846f75"/><path d="M78.359,95.984H40.479a2.5,2.5,0,0,0,0,5h37.88a2.5,2.5,0,0,0,0-5Z" fill="#846f75"/><path d="M164.2,136.1H91.8a2.5,2.5,0,0,0-2.5,2.5V211a2.5,2.5,0,0,0,2.5,2.5h72.4a2.5,2.5,0,0,0,2.5-2.5V138.6A2.5,2.5,0,0,0,164.2,136.1Zm-69.9,8.535L124.465,174.8,94.3,204.965Zm3.535-3.535h60.327L128,171.266ZM128,178.336,158.163,208.5H97.836Zm3.535-3.535L161.7,144.638v60.327Z" fill="#846f75"/></svg>