<svg xmlns="http://www.w3.org/2000/svg" viewBox="0 0 256 256"><title>icon</title><path d="M90.366,132.039a8.67,8.67,0,0,0-6.251,2.663,8.44,8.44,0,0,0-6.15-2.663,8.671,8.671,0,0,0-6.251,2.663,8.44,8.44,0,0,0-6.15-2.663,8.628,8.628,0,0,0-3.7.838V97.338c0-.06,0-.12-.007-.18a8.868,8.868,0,0,0-8.693-8.52,8.71,8.71,0,0,0-8.7,8.7v45.135L35.708,158.32a12.388,12.388,0,0,0-.765,11.286l8.567,19.887a33.561,33.561,0,0,0,3.021,5.521,25.835,25.835,0,0,1,4.711,12.51H46.309a2.5,2.5,0,0,0-2.5,2.5v20.8a2.5,2.5,0,0,0,2.5,2.5H96.567a2.5,2.5,0,0,0,2.5-2.5v-20.8a2.5,2.5,0,0,0-2.5-2.5H92.245c.364-3.466,1.408-7.565,2.909-9.784a22.7,22.7,0,0,0,3.913-12.766V140.739c0-.06,0-.121-.006-.181A8.87,8.87,0,0,0,90.366,132.039Zm3.7,96.287H48.809v-15.8H94.067Zm0-43.352a17.717,17.717,0,0,1-3.054,9.964c-2.134,3.155-3.42,8.288-3.8,12.586H56.268a30.888,30.888,0,0,0-5.595-15.312,28.544,28.544,0,0,1-2.571-4.7l-8.567-19.886a7.352,7.352,0,0,1-.443-4.445,7.572,7.572,0,0,1,.946-2.364l9.113-16.492a2.505,2.505,0,0,0,.312-1.209V97.338a3.7,3.7,0,0,1,3.7-3.7,3.93,3.93,0,0,1,3.7,3.8v54.08a2.5,2.5,0,0,0,5,0v-10.78a3.7,3.7,0,0,1,3.7-3.7,3.93,3.93,0,0,1,3.7,3.8v10.679a2.5,2.5,0,0,0,5,0v-10.78a3.7,3.7,0,0,1,3.7-3.7,3.929,3.929,0,0,1,3.7,3.8v10.679a2.5,2.5,0,0,0,5,0v-10.78a3.7,3.7,0,0,1,3.7-3.7,3.93,3.93,0,0,1,3.7,3.8v44.134Z" fill="#846f75"/><path d="M237.5,22.674H18.5a2.5,2.5,0,0,0-2.5,2.5v153.5a2.5,2.5,0,0,0,2.5,2.5H32a2.5,2.5,0,0,0,0-5H21V27.674H235v148.5H107a2.5,2.5,0,1,0,0,5H237.5a2.5,2.5,0,0,0,2.5-2.5V25.174A2.5,2.5,0,0,0,237.5,22.674Z" fill="#846f75"/><path d="M203,101.174a26.5,26.5,0,1,0-26.5,26.5A26.53,26.53,0,0,0,203,101.174Zm-48,0a21.5,21.5,0,1,1,21.5,21.5A21.525,21.525,0,0,1,155,101.174Z" fill="#846f75"/><path d="M174.234,109.929c-.042,0-.083,0-.125,0a2.5,2.5,0,0,1-1.81-.914l-6.319-7.723a2.5,2.5,0,0,1,3.87-3.166l4.569,5.585,9.633-9.631a2.5,2.5,0,1,1,3.535,3.535L176,109.2A2.5,2.5,0,0,1,174.234,109.929Z" fill="#ed9abc"/><path d="M74,104.174H68a2.5,2.5,0,0,1,0-5h6a2.5,2.5,0,0,1,0,5Z" fill="#ed9abc"/><path d="M114,104.174H104a2.5,2.5,0,0,1,0-5h10a2.5,2.5,0,0,1,0,5Zm-20,0H84a2.5,2.5,0,0,1,0-5H94a2.5,2.5,0,0,1,0,5Z" fill="#ed9abc"/><path d="M130,104.174h-6a2.5,2.5,0,0,1,0-5h6a2.5,2.5,0,0,1,0,5Z" fill="#ed9abc"/><path d="M132,114.074a2.5,2.5,0,0,1-1.768-4.268l8.132-8.132-8.132-8.132a2.5,2.5,0,1,1,3.536-3.535l9.9,9.9a2.5,2.5,0,0,1,0,3.535l-9.9,9.9A2.489,2.489,0,0,1,132,114.074Z" fill="#ed9abc"/><path d="M88,223.174H82a2.5,2.5,0,1,1,0-5h6a2.5,2.5,0,0,1,0,5Z" fill="#ebe7f2"/><path d="M176.5,149.174a48.248,48.248,0,0,1-43.374-27.427,2.5,2.5,0,1,1,4.517-2.145,43,43,0,1,0-.843-34.965,2.5,2.5,0,0,1-4.614-1.925A48,48,0,1,1,176.5,149.174Z" fill="#ebe7f2"/></svg>