<svg xmlns="http://www.w3.org/2000/svg" viewBox="0 0 256 256"><title>icon</title><path d="M164.708,203.693H110.055a2.5,2.5,0,0,1,0-5h54.653a7.134,7.134,0,0,0,6.161-3.555l36.708-63.581a7.137,7.137,0,0,0,0-7.114L170.869,60.862a7.136,7.136,0,0,0-6.161-3.556H91.292a7.136,7.136,0,0,0-6.161,3.556L48.423,124.443a7.137,7.137,0,0,0,0,7.114l36.708,63.581a7.134,7.134,0,0,0,6.161,3.555h7.185a2.5,2.5,0,0,1,0,5H91.292A12.148,12.148,0,0,1,80.8,197.638L44.093,134.057a12.153,12.153,0,0,1,0-12.114L80.8,58.362a12.149,12.149,0,0,1,10.491-6.056h73.416A12.149,12.149,0,0,1,175.2,58.362l36.708,63.581a12.153,12.153,0,0,1,0,12.114L175.2,197.638A12.148,12.148,0,0,1,164.708,203.693Z" fill="#ebe7f2"/><path d="M228.614,120.961,184.4,44.385a14.118,14.118,0,0,0-12.192-7.038H83.789A14.118,14.118,0,0,0,71.6,44.385L27.386,120.961a14.116,14.116,0,0,0,0,14.078L71.6,211.615a14.118,14.118,0,0,0,12.192,7.038h88.422a14.118,14.118,0,0,0,12.192-7.038l44.211-76.576A14.116,14.116,0,0,0,228.614,120.961Zm-4.33,11.578-44.211,76.576a9.1,9.1,0,0,1-7.862,4.538H112.555V190.224L159.75,175.3a19.8,19.8,0,0,0,13.877-18.944V133.5a2.5,2.5,0,1,0-5,0v22.859a14.813,14.813,0,0,1-10.385,14.176L109.3,186.009a2.5,2.5,0,0,0-1.746,2.384v25.26h-6.578V101.95a2.5,2.5,0,0,0-5,0v111.7H83.789a9.1,9.1,0,0,1-7.862-4.538L31.716,132.539a9.105,9.105,0,0,1,0-9.078L75.927,46.885a9.1,9.1,0,0,1,7.862-4.538h88.422a9.1,9.1,0,0,1,7.862,4.538l44.211,76.576A9.105,9.105,0,0,1,224.284,132.539Z" fill="#846f75"/><path d="M159.549,131a2.5,2.5,0,0,0-2.5,2.5v22.859a3.274,3.274,0,0,1-2.3,3.136l-42.2,13.344V101.95a2.5,2.5,0,1,0-5,0v74.3a2.5,2.5,0,0,0,3.254,2.384l45.449-14.372a8.256,8.256,0,0,0,5.791-7.9V133.5A2.5,2.5,0,0,0,159.549,131Z" fill="#846f75"/><path d="M104.266,104.45a19.577,19.577,0,1,1,19.577-19.577A19.6,19.6,0,0,1,104.266,104.45Zm0-34.154a14.577,14.577,0,1,0,14.577,14.577A14.593,14.593,0,0,0,104.266,70.3Z" fill="#ed9abc"/><path d="M165.338,136a19.577,19.577,0,1,1,19.577-19.577A19.6,19.6,0,0,1,165.338,136Zm0-34.153a14.577,14.577,0,1,0,14.577,14.576A14.593,14.593,0,0,0,165.338,101.846Z" fill="#ed9abc"/></svg>